<svg width="45" height="50" viewBox="0 0 45 50" fill="none" xmlns="http://www.w3.org/2000/svg">
<path d="M45 22.5C45 33.6841 36.8399 42.9623 26.1486 44.7057C24.9611 44.8993 23.7423 49.8649 22.5 49.8649C21.2577 49.8649 20.0389 44.8993 18.8513 44.7057C8.1601 42.9623 0 33.6841 0 22.5C0 10.0736 10.0736 0 22.5 0C34.9264 0 45 10.0736 45 22.5Z" fill="#2E5E5E"/>
<path d="M14.3727 20.0095L21.0961 13.3835C21.8748 12.6162 23.1252 12.6162 23.9039 13.3835L30.6273 20.0095C31.8639 21.2282 31.001 23.3333 29.2647 23.3333V28C29.2647 29.1046 28.3693 30 27.2647 30H25.8529C24.7484 30 23.8529 29.1046 23.8529 28V26.0196C23.8529 25.2724 23.2472 24.6667 22.5 24.6667C21.7528 24.6667 21.1471 25.2724 21.1471 26.0196V28C21.1471 29.1046 20.2516 30 19.1471 30H17.7353C16.6307 30 15.7353 29.1046 15.7353 28V23.3333C13.999 23.3333 13.1361 21.2282 14.3727 20.0095Z" fill="white"/>
</svg>
