<svg width="64" height="64" viewBox="0 0 64 64" fill="none" xmlns="http://www.w3.org/2000/svg">
<rect width="64" height="64" rx="32" fill="#2E5E5E"/>
<rect x="13" y="13" width="38" height="38" rx="19" fill="white"/>
<path d="M28.3608 38V36.9773L32.2017 32.7727C32.6525 32.2803 33.0237 31.8523 33.3153 31.4886C33.607 31.1212 33.8229 30.7765 33.9631 30.4545C34.107 30.1288 34.179 29.7879 34.179 29.4318C34.179 29.0227 34.0805 28.6686 33.8835 28.3693C33.6903 28.0701 33.4252 27.839 33.0881 27.6761C32.7509 27.5133 32.3722 27.4318 31.9517 27.4318C31.5047 27.4318 31.1146 27.5246 30.7812 27.7102C30.4517 27.892 30.196 28.1477 30.0142 28.4773C29.8362 28.8068 29.7472 29.1932 29.7472 29.6364H28.4062C28.4062 28.9545 28.5634 28.3561 28.8778 27.8409C29.1922 27.3258 29.6203 26.9242 30.1619 26.6364C30.7074 26.3485 31.3191 26.2045 31.9972 26.2045C32.679 26.2045 33.2831 26.3485 33.8097 26.6364C34.3362 26.9242 34.7491 27.3125 35.0483 27.8011C35.3475 28.2898 35.4972 28.8333 35.4972 29.4318C35.4972 29.8598 35.4195 30.2784 35.2642 30.6875C35.1127 31.0928 34.8475 31.5455 34.4688 32.0455C34.0938 32.5417 33.5729 33.1477 32.9062 33.8636L30.2926 36.6591V36.75H35.7017V38H28.3608Z" fill="#0A0A0A"/>
</svg>
