<svg width="184" height="21" viewBox="0 0 184 21" fill="none" xmlns="http://www.w3.org/2000/svg">
<path d="M135.03 1.69008H130.717C126.072 1.69008 122.619 5.51806 122.619 10.1279C122.619 14.7375 126.072 18.4259 130.717 18.4259H135.03V20.1853H140.158V18.4259H144.436C149.08 18.4259 152.569 14.7375 152.569 10.1279C152.569 5.51806 149.08 1.69008 144.436 1.69008H140.158V0H135.03V1.69008ZM166.461 1.69008H162.148C157.504 1.69008 154.05 5.51806 154.05 10.1279C154.05 14.7375 157.504 18.4259 162.148 18.4259H166.461V20.1853H171.589V18.4259H175.867C180.511 18.4259 184 14.7375 184 10.1279C184 5.51806 180.511 1.69008 175.867 1.69008H171.589V0H166.461V1.69008ZM121.138 10.2293C121.138 4.36117 115.721 0.398035 109.592 0.398035C103.463 0.398035 98.0465 4.36117 98.0465 10.2293C98.0465 16.0973 103.463 20.0607 109.592 20.0607C115.721 20.0607 121.138 16.0973 121.138 10.2293ZM16.6668 15.682C16.5272 15.6876 16.3855 15.6904 16.2429 15.6904H7.41983V19.7343H2.38635V7.18208H7.41983V13.0382L8.74445 11.1024H8.92846H16.0373C17.8202 11.1024 19.0887 10.1763 19.0887 8.32454C19.0887 7.47241 18.81 6.77125 18.3303 6.26644C17.7864 5.69439 16.9843 5.37499 16.0373 5.37499H2.38635L0 0.786998H16.2431C18.0056 0.786998 19.5884 1.24273 20.8665 2.06113L20.867 2.06136L20.9056 2.08625L20.944 2.11161L20.9823 2.13697L21.0205 2.16256L21.0584 2.18815L21.0961 2.2142L21.1336 2.24049L21.1708 2.26701L21.208 2.29353L21.245 2.32052C23.0502 3.64373 24.1566 5.74627 24.1566 8.32454C24.1566 12.6743 21.007 15.5094 16.6668 15.682ZM39.3003 13.5935L39.1894 14.4844C38.9861 15.0625 38.5112 15.4024 37.9687 15.4024H35.1302L33.6874 19.6028H38.1721C40.6815 19.6028 42.8857 17.909 43.6994 15.6057L48.7178 0.855625H43.5975L40.8052 9.16505L33.5282 9.15691L30.8455 9.15435L32.8143 7.8188L30.3677 0.786998H25.3214L29.4755 13.4864L39.3003 13.5935ZM80.7953 6.74473V0.786998H75.8314V19.6028H80.7953V12.7111H87.5508L92.1783 19.6028H98.1342L91.6684 10.1949L97.725 0.786998H91.941L87.4145 8.12076H78.7403L80.7953 6.74473ZM51.7602 0.786998V19.5337H66.4202C70.3513 19.5337 73.0968 16.7715 73.0968 13.2443C73.0968 9.61566 70.3513 7.11439 66.4202 7.11439H56.7057V5.25867H68.2108L70.7926 0.786998H51.7602ZM103.5 10.2293C103.5 6.80312 106.175 4.63219 109.592 4.63219C112.973 4.63219 115.647 6.80312 115.647 10.2293C115.647 13.6553 112.973 15.8263 109.592 15.8263C106.175 15.8263 103.5 13.6553 103.5 10.2293ZM56.7057 11.5181H66.0813C67.6076 11.5181 68.1159 12.1918 68.1159 13.2443C68.1159 14.3644 67.6411 15.0623 66.1148 15.0623H54.6432L56.7057 13.6723V11.5181ZM135.03 6.3332V13.783H131.164C129.277 13.783 127.611 12.0148 127.611 10.093C127.611 8.13611 129.172 6.3332 131.164 6.3332H135.03ZM140.158 6.3332H143.989C145.981 6.3332 147.542 8.13611 147.542 10.093C147.542 12.0148 145.876 13.783 143.989 13.783H138.064L140.158 12.3786V6.3332ZM166.461 6.3332V13.783H162.594C160.708 13.783 159.042 12.0148 159.042 10.093C159.042 8.13611 160.603 6.3332 162.594 6.3332H166.461ZM171.589 6.3332H175.42C177.412 6.3332 178.973 8.13611 178.973 10.093C178.973 12.0148 177.307 13.783 175.42 13.783H169.495L171.589 12.3786V6.3332Z" fill="white"/>
</svg>
