<svg xmlns="http://www.w3.org/2000/svg" width="132" height="132" fill="none" viewBox="0 0 132 132"><mask id="a" width="132" height="132" x="0" y="0" maskUnits="userSpaceOnUse" style="mask-type:alpha"><rect width="132" height="132" fill="#2E5E5E" rx="24"/></mask><g mask="url(#a)"><rect width="132" height="132" fill="#224646" rx="24"/><path fill="#193536" d="M575.93 228.97c.38-1.63.84-3.26 1.22-4.9a397.1 397.1 0 0 0 4.35-20.81l.38-1.92c-.5 3.19-.98 6.37-1.55 9.52a313.45 313.45 0 0 1-4.4 18.11ZM281.3 493.87l-2.03.77a556.46 556.46 0 0 1-14.24 5.1l-2.07.7c-22.33 9.57-47.16 13.06-68.8 19.16l-2.11.46a687.66 687.66 0 0 1-48.45 8.69c-1.35.2-2.7.38-4.06.53-12.43-1.84-26.62 1.64-40.52 2.79l-4.3.05c-11.43.14-22.86.24-34.3.32l-2.13.01c-23.42-5.01-48.25 1.96-73.03.3h-5.74a557.44 557.44 0 0 1-9.46-.95c-13.24-4.36-30.97-.88-45.66-6.63-.5-.08-1-.18-1.49-.27l-2.95-.55-1.9-.38c-14.45-6.99-28.63-6.99-42.05-9.45-1.38-.27-2.74-.64-4.09-1a494 494 0 0 1-26.2-7.93l-2-.67a307.65 307.65 0 0 1-9.9-3.86c-22.44-11.96-43.73-18.93-66.58-28.32l-1.78-1c-7.72-4.42-15.33-9.54-21.8-13.16l-1.84-1.1a487.45 487.45 0 0 1-12.52-7.83c-17.25-12.84-35-26.79-55.74-41.44l-1.6-1.37a511.09 511.09 0 0 1-35.09-33.13c-2.91-3-5.48-5.8-8.18-8.71-2.68-2.84-5.47-6.06-8.18-9.07l-4.49-4.76-4.07-4.43-8-8.98a608.5 608.5 0 0 1-30.17-37.4 545.6 545.6 0 0 1-50.27-81.4c-14.33-28.45-25.94-58.1-35.23-88.3a559.01 559.01 0 0 1-19.3-92.36l.04.18c-.44-4.1-.85-8.19-1.23-12.28v-.1l-.44-2.24a277.85 277.85 0 0 1-4.29-34.2c-.18-2.86-.28-5.73-.38-8.6l-.14-8.66c0-5.53.16-11.55.52-16.93l.6-8.89.05-.58.02-.29c.02-.4-.04 2.46 0 1.12l.15-1.09.3-2.19.64-4.36a494.9 494.9 0 0 1 2.87-17.38c10.22-60.16 31.5-119.42 62.41-171.57l1.83-3.25a464.1 464.1 0 0 1 17.37-28.52l2.06-3.08c25.88-52.43 75.54-83.8 119.64-119.67l2.81-2.05c3.78-2.72 7.59-5.38 11.44-8 9.58-6.6 19.4-12.92 29.44-18.89a586.02 586.02 0 0 1 36.24-19.87c39.16-19.89 74.64-37.33 116.93-43.13a753.12 753.12 0 0 1 11.95-2.82 320.58 320.58 0 0 1 63.9-10.03l4.05-.35c26.8-5.4 58.73-8.88 86.6.18l3.7.34c6.14.58 12.3 1.25 18.12 1.91a557.34 557.34 0 0 1 71.41 13.63c11.75 3 23.53 6.47 34.98 10.18l8.83 2.95 9.07 3.13c3.85 1.26 7.7 2.65 11.52 4.16.55.21 1.1.42 1.64.65 11.52 6.28 18.62 9.76 30.65 14.06l1.84.93 3.37 1.7 3.4 1.73a959.06 959.06 0 0 1 26.3 12.77l1.8.91c8.68 6.78 20.82 8.47 30.9 15.03 1.14.73 2.24 1.51 3.38 2.3 5.87 5.82 15.19 9.34 23.37 14.8 1.18.78 2.31 1.6 3.45 2.47 10.76 12.78 24.97 23.24 39.78 31.78 1.14.8 2.28 1.62 3.41 2.43a521.87 521.87 0 0 1 39.56 31.4 508.13 508.13 0 0 1 52.93 54.14 505.41 505.41 0 0 1 23.41 29.76 534.75 534.75 0 0 1 20.96 31.52c13.18 21.49 24.97 43.86 34.66 67.08a485.83 485.83 0 0 1 36.72 145.32c.83 9.04 1.29 18.1 1.59 27.15-24.06-108.89-82.83-211.03-166.67-285.35a521.78 521.78 0 0 0-16.3-13.88c-19.66-15.43-39.32-30-58.38-43.32l-5.23-3.59c-6.17-3.2-14.43-7.1-24.9-12.04-21.07-9.95-49.94-23.57-85.5-42.72-1.28-.7-2.53-1.44-3.78-2.19l-1.84-1.08c-5.32-3.1-10.64-6.22-15.98-9.35-21.02-12.35-42.75-25.1-65.56-36.76-1.6-.58-3.2-1.14-4.81-1.71a670.58 670.58 0 0 0-14.39-4.87C67.21-459.6 19.9-468.59-28.87-468.59c-65.7 0-132.25 16.65-192.44 48.13-6 3.13-12.02 6.47-17.92 9.95-95.71 58.92-174.81 135.15-222.71 214.61l-1.45 2.44-.8 1.37c-20.17 40.75-34.11 81.33-41.44 120.59-.38 2-.74 3.98-1.08 6.05-5.6 47.43-4.68 92.2 2.73 133.03.31 1.78.64 3.54.98 5.3l.2.55c2.67 4.63 3.29 10.93 3.94 17.6.74 7.5 1.49 15.24 5.27 21.58a365.12 365.12 0 0 0 23.4 57.6 456.32 456.32 0 0 0 9.3 18.18c35.22 65.34 89.4 128.79 161.01 188.59a479.63 479.63 0 0 0 16.5 13.63c54.33 42.9 116.46 73.45 184.68 90.78 6.3 1.6 12.67 3.08 18.96 4.42a827.44 827.44 0 0 0 32.3 5.63l.35.05.34-.08c3.78-.86 7.45-1.64 11.12-2.42l4.79.9c1.9.34 4.11.73 6.28 1l.16.01.15-.03c9.27-2 18.57-4.27 27.57-6.45 6.49-1.57 12.88-3.12 19.22-4.58a370.66 370.66 0 0 1 34.45-1.68c34.9 0 68.2 5.53 101.5 16.71a160.3 160.3 0 0 1 4.35 3.19c2.36 1.17 5.24 1.71 9.04 1.71 2.4 0 4.91-.21 7.35-.41 2.4-.2 4.89-.42 7.22-.42 1.2 0 2.27.05 3.45.17l3.44-.33c49.94-5.02 96.65-14.84 138.97-29-17.47 7.35-32.55 17.5-51.02 24.1ZM572.56 82.15c-12.16-123.82-74.8-243.06-174.44-330.46a563.15 563.15 0 0 0-16.86-14.24c-10.15-7.08-20.34-14.32-30.65-21.62l-4.43-3.18c-21.56-13.19-43.54-25.13-66.81-37.77-29-15.76-59-32.05-87.95-50.91l-9.54-6.59c-17.13-11.82-34.84-24.04-52.84-35.3A341.02 341.02 0 0 0-9.51-447.05a344.46 344.46 0 0 0-149.65 34c-96.41 54.92-178.38 132.65-230.82 218.86a242.49 242.49 0 0 0-3.24 5.45c-18.22 19.4-20.57 46.74-20.56 68.33a410.5 410.5 0 0 1-2.39 24.5c-.66 21.55-7.38 40.98-13.88 59.78-5.6 16.17-10.89 31.43-12.53 47.75l-.88 6.03c-3.32 22.81-6.2 42.5-4.58 65.7.2 1.4.43 2.78.65 4.06.7 12.03 4.5 22.87 8.53 34.34 2.9 8.28 5.91 16.84 7.72 26.1.65 2 1.3 3.98 1.97 5.95 9.56 28.18 21.12 51.92 35.37 72.55a457.28 457.28 0 0 0 11.12 16.92c40.89 59.43 95.3 109.56 138.15 146.6a455.1 455.1 0 0 0 15.83 12.91 440.73 440.73 0 0 0 179.43 83.56c1.56.33 3.15.63 4.73.95-.91.2-1.77.37-2.68.58l-6.18-.98a853.3 853.3 0 0 1-25.61-4.56 491.86 491.86 0 0 1-18.8-4.4c-67.72-17.19-129.4-47.5-183.32-90.1a460.33 460.33 0 0 1-16.4-13.56c-71.28-59.52-125.18-122.62-160.19-187.55a468.17 468.17 0 0 1-9.23-18.06c-8.94-17.71-16-34.7-21.58-51.95-.57-1.77-1.14-3.54-1.67-5.32l-.19-.42c-3.45-5.68-4.18-13.1-4.89-20.28-.68-6.94-1.32-13.5-4.24-18.75-.31-1.65-.62-3.3-.9-4.97-7.36-40.5-8.28-84.91-2.72-131.91.32-1.96.68-3.93 1.04-5.9 7.28-38.94 21.12-79.2 41.09-119.56l.74-1.27c.44-.74.65-1.12 1.42-2.39 47.61-78.98 126.28-154.77 221.48-213.4 5.83-3.41 11.8-6.72 17.74-9.82 59.68-31.22 125.65-47.73 190.76-47.73 48.31 0 95.18 8.9 139.4 26.5a683.5 683.5 0 0 1 14.42 4.89l4.57 1.6c22.5 11.52 44.19 24.25 65.16 36.57 5.35 3.14 10.67 6.26 16 9.36l1.8 1.07c1.3.77 2.6 1.54 3.93 2.26 35.64 19.2 64.56 32.84 85.67 42.8 10.42 4.93 18.68 8.8 24.59 11.87l5 3.46c19.02 13.27 38.6 27.81 58.2 43.18a493.58 493.58 0 0 1 16.17 13.76C494.06-189.7 554.26-80.8 575.36 34.24a470.32 470.32 0 0 1-2.8 47.9Zm-9.36 54.26-.19.84-.07 1.24a413.96 413.96 0 0 1-4.2 39.94c-.54 3.35-1.07 6.46-1.68 9.81l-.94 5.1-.99 4.75a426.65 426.65 0 0 1-4.58 19.64 383.83 383.83 0 0 1-5.91 20.53 356.2 356.2 0 0 0 5.83-45.98 542.38 542.38 0 0 0 4.81-78.52c-.11-7.04-.41-14.15-.94-21.16C547.2-3.43 498.4-99.47 416.95-177.84c-1.59-1.54-3.22-3.07-4.8-4.58-5.27-4.94-11.3-9.94-17.66-15.22-6.33-5.25-12.89-10.68-18.6-16.05l-5.73-4.48a1739.16 1739.16 0 0 0-21.67-16.87l-4.2-3.2c-34.4-44.63-84.7-64.74-133.32-84.18-18.31-7.33-37.25-14.91-55.02-23.64l-5.51-3.56a1385.8 1385.8 0 0 1-38.76-26.23c-2.03-.85-4.05-1.69-6.09-2.52-45.6-18.64-84.9-27.7-120.14-27.7-8.12 0-16.17.48-23.93 1.44-6.17.76-12.32 1.84-18.35 3.22-113.83 39.3-214.5 124.42-276.17 233.54-1.06 1.87-2.1 3.75-3.13 5.63-9.25 9.5-9.25 27.52-9.25 38.26-.45 7.8-.65 16.07-.63 26.05 0 2.16.02 4.33.05 6.49.16 4.59.75 9.58 1.37 14.87 1.76 14.78 3.57 30.07-4.24 37.84-26.38 41.1-47 75.8-52.59 116.85.07 1.45.17 2.9.28 4.3 1.43 23.75 8.87 45.01 16.07 65.58 1.76 5.03 3.53 10.08 5.24 15.23.78 1.95 1.58 3.9 2.4 5.82 29.12 68.75 87.23 123.28 140.25 167.56 4.94 4.09 9.9 8.15 14.86 12.18l14.84 12.03c4.92 3.97 9.8 7.93 14.68 11.9a396.79 396.79 0 0 0 134.51 64.7c7.93 1.62 16.06 3.23 24.18 4.77l6.2 1.16.17.03.19-.03c20.09-4.41 40.42-6.56 62.13-6.56 52.37 0 104.1 12.93 156.9 27.33l.11.03 3.61-.05c99-1.7 178.79-21.16 237.21-57.78a406.98 406.98 0 0 1-11.18 9.38 440.33 440.33 0 0 1-31.37 23c-1.82.88-3.71 1.72-5.57 2.58-52.81 21.31-117.26 33.71-193.3 37-1.08.05-2.16.1-3.25.13-43.98-17.58-84.7-26.12-124.49-26.12-29.79 0-58.68 4.7-88.3 14.36-2.02-.23-4.01-.5-6-.77-8.1-1.1-16.26-2.28-24.16-3.46a419.38 419.38 0 0 1-156.17-74.18 472.46 472.46 0 0 1-16.07-12.82c-36.3-32.63-77.45-69.62-111.6-109.7-4.2-4.94-8.3-9.93-12.21-14.86-22.6-24.91-40.53-54.69-53.27-88.5-.72-1.92-1.44-3.83-2.1-5.64-2.2-9.72-5.35-19.23-8.4-28.43-4.5-13.53-9.15-27.54-11.15-43.14-.17-1.2-.3-2.4-.43-3.52.24-47.57 15.98-88.9 46.77-122.82 14.3-14.17 7.98-38.16 2.4-59.33l-.53-1.93c-.1-2.08-.17-4.15-.24-6.22-.64-21.79.5-47.26 13.97-70.94 1.08-1.9 2.16-3.8 3.26-5.68 57.52-98.45 146.6-178.2 250.8-224.54 5.9-2.42 11.99-4.6 18.1-6.5 22.57-6.99 46.93-10.54 72.42-10.54 39.37 0 82.63 8.44 128.56 25.1l5.6 2.06c20.55 10.99 39.16 23.26 54.65 33.82l5.24 3.58c21 13.18 43.94 24.6 66.13 35.63 37.87 18.85 77.01 38.33 107.78 67.23l4.47 3.36a9120.55 9120.55 0 0 1 30.2 23l5.3 4.04a496.1 496.1 0 0 1 16.33 14.62c94.38 87.75 151.97 203.83 158.07 318.45.38 7.14.57 14.35.57 21.45.19 2.97.26 5.95.38 8.94-.15.66-.27 1.33-.42 2ZM436.28 398.16a234.9 234.9 0 0 0 11.63-8.36A186.33 186.33 0 0 1 426.3 406a196.65 196.65 0 0 1-54.63 24.32c23.87-8.63 45.58-19.34 64.6-32.16Zm-94.2 38.24a441 441 0 0 1-29.93 3.77c-40.09 3.69-80.53 1.87-120.46-3.13-33.16-7.63-66.19-15.96-99.53-22.95-33.32-7-67.04-12.6-101.11-14.67a485.94 485.94 0 0 1-116.36-38.13c-36.94-17.56-71.72-39.72-102.55-66.48-30.78-26.74-57.67-58.14-77.74-93.55a316.75 316.75 0 0 1-24.8-55.56c-5.92-19.5-13.35-38.53-16.85-58.52-.13-1.83-.23-3.67-.3-5.5 4.14-12.02 9.49-23.53 14.81-35.08 5.4-11.57 11.06-23.07 16.17-34.93 5.09-11.84 9.7-24.06 12.7-36.84a139.22 139.22 0 0 0 3.6-38.6c.7-4.78 1.4-9.41 2.26-14.09.87-4.74 1.76-9.47 2.82-14.15a221.25 221.25 0 0 1 7.88-27.15c8.99-18.34 19.16-36.4 30.17-53.72a477.72 477.72 0 0 1 36.52-49.83 402.84 402.84 0 0 1 42.83-44.32c7.69-6.8 15.66-13.28 23.9-19.39 4.1-3.07 8.29-6.08 12.46-8.92 2.03-1.44 4.32-2.88 6.48-4.32 2.04-1.35 4.31-2.73 6.46-4.1l.67-.42.48-.44c4.72-4.33 12.29-7.52 20-10.58 7.52-3.08 15.65-5.8 23.64-11.22A277.93 277.93 0 0 1 8.6-346.8c15.95-.6 32.15-.38 47.95 1.9 16.01 2.15 31.67 5.54 47.23 10.07l33.33 16.32h.02l.12.07.13.03c36.8 8.16 73.09 20.13 105.7 39.07a240.98 240.98 0 0 1 45.13 33.6 224.96 224.96 0 0 1 35.5 43.44l.08.15.15.1c32.4 23.75 66.34 45.81 94.38 74.52 7.05 7.08 13.41 14.88 20.12 22.34a442.14 442.14 0 0 1 18.9 23.32 405.44 405.44 0 0 1 32.55 50.32c19.13 35.07 32.66 73.26 38.68 112.7 1.6 9.86 2.54 19.78 3.34 29.74.8 9.95 1.32 19.92 1.63 29.9.3 9.96.34 19.96.07 29.92a490.7 490.7 0 0 1-1.1 29.93c-2.95 39.73-12.12 79.26-29.32 115.34-10.46 22.01-24.25 42.68-41.15 60.37-30.65 27.5-67.55 45.66-105.56 57.45-4.77.95-9.58 1.8-14.4 2.59ZM-318.5-78.78l.07-6.16c.07-8.23.07-16.47.07-24.71l-.05-.29c-3.63-10.78 4.38-25.85 8.69-33.97 1-1.98 2.01-3.93 3.05-5.88 69.82-131.8 181.16-214.29 305.36-226.3 6.72.06 13.62.38 20.5.95 25.98 2.16 52.66 7.93 79.31 17.16 1.98.68 3.96 1.4 5.8 2.05a3655.7 3655.7 0 0 1 38.24 22.78l5.63 3.38c76.06 25.85 137.65 50.56 180.5 112.46l.2.21c1.7 1.25 3.4 2.45 5.07 3.66l11.37 8.02c29.44 20.75 59.9 42.21 84.1 70.76.8.82 1.6 1.63 2.36 2.43C496.44-64.55 534.6 12.62 542.06 90.96a321.4 321.4 0 0 1 1.29 20.13c.72 20.26.34 40.4-1.1 59.87-.5 6.7-1.14 13.45-1.9 20.12-1.74 49.52-12.61 89.9-29.78 122.8A367.79 367.79 0 0 1 483 353.85a251.24 251.24 0 0 0 21.83-37.1c17.31-36.3 26.52-76.04 29.51-115.96.76-9.98.95-20.05 1.1-30 .27-10.03.23-20.02-.08-30.04-.3-10-.87-20-1.66-29.98-.8-9.97-1.75-19.96-3.3-29.86-6.1-39.67-19.7-78.05-38.91-113.29a407.67 407.67 0 0 0-32.7-50.54 464.21 464.21 0 0 0-18.98-23.41c-6.7-7.48-13.03-15.24-20.16-22.41-28.22-28.87-62.2-50.95-94.53-74.63a225.38 225.38 0 0 0-35.65-43.64 243.52 243.52 0 0 0-45.47-33.85c-32.8-19.05-69.19-31.05-106.07-39.24a1117.23 1117.23 0 0 0-31.9-19.5l-.1-.07-.3-.11a291.85 291.85 0 0 0-47.6-13.7 225.52 225.52 0 0 0-24.75-3.47 273.27 273.27 0 0 0-74.79 3.7A287.7 287.7 0 0 0-89.7-339.4l-.67.27-.83.55c-5.77 3.88-13.6 6.73-21.55 9.82-4.01 1.56-8.14 3.2-12.3 5.23a54.36 54.36 0 0 0-11.64 7.43c-2.17 1.34-4.27 2.6-6.48 4.04-2.22 1.44-4.38 2.78-6.64 4.34-4.53 3.04-8.9 6.08-13.18 9.31a371.17 371.17 0 0 0-24.8 20.35 416.83 416.83 0 0 0-44.1 46.18 479.44 479.44 0 0 0-36.76 51.9 492.04 492.04 0 0 0-29.75 56.07l-.13.28-.07.21a230.66 230.66 0 0 0-7.58 29.15c-.95 4.91-1.78 9.82-2.45 14.74-.7 4.91-1.25 9.9-1.77 14.73l-.07.63.04.4c1.19 12.22.43 24.62-1.9 36.84-2.28 12.23-5.97 24.32-10.35 36.2-4.38 11.92-9.38 23.7-14.15 35.59a311.93 311.93 0 0 0-12.5 36.43l-.04.15v.15c.09 1.93.2 3.85.33 5.78v.04l.02.06c3.52 20.19 11 39.33 16.9 58.75a319.17 319.17 0 0 0 24.94 55.92c20.2 35.6 47.22 67.16 78.14 94 30.95 26.89 65.88 49.13 102.95 66.76A487.88 487.88 0 0 0-9.27 401.18l.07.01h.05c33.97 2.06 67.64 7.65 100.94 14.63 33.31 7 66.34 15.33 99.55 22.97l.04.01.05.01c40.03 5 80.63 6.84 120.91 3.14 9.29-.86 18.53-2.03 27.74-3.46-45.92 12.03-92.41 15.5-130.57 15.5-4.39 0-8.78-.06-13.18-.14l-3.35-.08c-70.06-21.91-138.78-28.9-208.68-34.6a725.79 725.79 0 0 1-35.82-12 726.82 726.82 0 0 1-18.16-5.44C-194.2 364.66-302.9 273.63-346.6 169.78c-.83-1.96-1.63-3.94-2.46-6-11.31-21.47-19.23-48.58-23.54-80.53-.16-2.24-.27-4.28-.33-6.23 5.55-20.14 16.14-38.46 26.37-56.2 17.19-29.78 34.97-60.58 28.06-99.6Zm-24.3 2c-.62-5.25-1.2-10.21-1.36-14.7l-.05-6.46c-.02-9.93.18-18.18.64-26 0-10.53 0-28.2 8.82-37.14l.15-.2c1.04-1.91 2.1-3.82 3.17-5.72 61.47-108.74 161.77-193.57 275.1-232.7a179.43 179.43 0 0 1 18.08-3.16c7.68-.94 15.66-1.42 23.7-1.42 35 0 74.07 9.01 119.45 27.56l5.9 2.42a1339.31 1339.31 0 0 0 38.65 26.17c1.84 1.19 3.68 2.38 5.61 3.61 17.92 8.82 36.9 16.4 55.25 23.75 48.42 19.37 98.51 39.4 132.61 83.7l4.55 3.5c7 5.36 14.28 11.02 21.6 16.8l5.64 4.43c5.68 5.35 12.27 10.8 18.6 16.07a382.54 382.54 0 0 1 17.58 15.14c1.63 1.52 3.22 3.04 4.81 4.57C496.86-98.5 545.43-2.86 552.56 92.74c.53 6.96.83 14.04.9 21.04a555.5 555.5 0 0 1-2.5 58.72c-.64 6.54-1.4 13.11-2.3 19.6-1.3 21.13-4.17 41-8.6 59.68-5 13.89-10.84 27.49-17.55 40.64-.6 1.2-1.25 2.36-1.9 3.53 12.93-30.79 20.16-65.73 21.53-104.74a535.49 535.49 0 0 0 3-80.17c-.2-6.77-.62-13.59-1.26-20.25-7.54-78.74-45.85-156.28-110.79-224.24-.8-.82-1.55-1.63-2.3-2.4-24.37-28.69-54.9-50.21-84.46-71.03-3.79-2.66-7.58-5.33-11.33-8.01-1.63-1.17-3.3-2.34-4.93-3.55-43.15-62.26-104.98-87.07-181.14-112.94l-5.46-3.3a3538.8 3538.8 0 0 0-38.4-22.86c-2-.72-3.98-1.44-5.98-2.12-26.8-9.28-53.62-15.08-79.74-17.26-6.94-.58-13.88-.9-20.74-.96-64.71 6.26-125.43 31.09-180.47 73.78-50.08 38.85-93.79 91.92-126.41 153.48a418.9 418.9 0 0 0-3.06 5.9c-4.4 8.3-12.59 23.72-8.83 35.21 0 8.19 0 16.38-.08 24.55l-.05 6.32c6.8 38.55-10.02 67.71-27.83 98.58-10.32 17.86-20.97 36.33-26.58 56.74l-.04.13v.13c.06 2 .17 4.12.35 6.5 4.34 32.2 12.32 59.52 23.7 81.08.78 1.99 1.6 3.98 2.43 5.96 43.9 104.3 153.05 195.74 278.05 232.96 5.96 1.86 12.08 3.7 18.14 5.41a707.68 707.68 0 0 0 36.03 12.06c70.03 5.74 138.68 12.71 208.6 34.6l3.74.12c4.4.1 8.81.13 13.21.13 53.76 0 102.76-6.78 145.38-19.85.8-.16 1.6-.27 2.39-.44 4.96-.93 9.93-2.04 14.78-3.42a198.66 198.66 0 0 0 55.24-24.56 191.28 191.28 0 0 0 21.52-16.13c-3.41 3.32-6.9 6.56-10.46 9.75-58.35 38.91-139.54 59.42-243.3 61.2l-3.23.05c-52.88-14.42-104.7-27.35-157.25-27.35-21.78 0-42.17 2.14-62.34 6.56l-6-1.13a1567.2 1567.2 0 0 1-24.11-4.77 395.25 395.25 0 0 1-133.82-64.36 5097 5097 0 0 0-14.64-11.87c-4.93-3.99-9.9-8-14.85-12.03-4.95-4.03-9.9-8.08-14.84-12.17-52.86-44.14-110.78-98.48-139.74-166.89-.83-1.91-1.62-3.84-2.38-5.73a823.69 823.69 0 0 0-5.23-15.2c-7.16-20.45-14.56-41.6-15.97-65.13-.12-1.4-.21-2.83-.29-4.1 5.53-40.53 26.06-75.05 52.2-115.81 8.3-8.23 6.44-23.96 4.63-39.16ZM8.1 481.42l-5.2 1.26c-8.95 2.17-18.18 4.42-27.39 6.42-2.08-.27-4.2-.64-6.03-.97l-.55-.1a538.18 538.18 0 0 1 39.16-6.6Zm138.66 6.04a316.64 316.64 0 0 0-99.2-12.71c12.03-2.05 23.94-3.4 35.85-3.4 23.51 0 44.02 5.17 63.35 16.11Zm-63.35-17.9c-16.09 0-32.11 2.38-48.45 5.74-23 1.4-47.5 5.02-75.13 11.03a404.63 404.63 0 0 1-28.5-6.4 439 439 0 0 1-158.92-78.56 458.76 458.76 0 0 1-15.76-12.85c-42.76-36.97-97.07-87-137.85-146.26a482.43 482.43 0 0 1-11.1-16.9c-14.16-20.52-25.66-44.12-35.16-72.14-.67-1.97-1.32-3.94-1.94-5.83-1.8-9.27-4.83-17.9-7.76-26.23-3.99-11.36-7.75-22.08-8.44-33.96l-.66-4.05c-1.58-22.93 1.27-42.55 4.58-65.25l.89-6.08c1.63-16.14 6.87-31.31 12.44-47.38 6.55-18.92 13.32-38.49 13.98-60.22a410.01 410.01 0 0 0 2.38-24.58c0-21.32 2.29-48.23 20.2-67.33 1.1-1.87 2.22-3.73 3.35-5.6 52.28-85.94 134.03-163.45 230.12-218.2A342.57 342.57 0 0 1-9.5-445.26c46.75 0 92.07 9.29 134.72 27.62l2.98 1.29c17.85 11.19 35.55 23.4 52.66 35.2l9.56 6.6c29.03 18.9 59.05 35.22 88.1 51 23.23 12.62 45.2 24.55 66.64 37.68l4.44 3.14c10.27 7.31 20.5 14.56 30.57 21.6a548.1 548.1 0 0 1 16.79 14.17c101.5 89.02 164.43 211.2 174.51 337.51-1.59 12.4-3.71 24.7-6.33 36.93l-.1-2.06c0-7.1-.2-14.32-.58-21.5-6.1-115.07-63.92-231.59-158.6-319.66a566.2 566.2 0 0 0-16.44-14.7l-5.34-4.07c-10.04-7.67-20.12-15.36-30.2-23l-4.4-3.3c-30.88-29.01-70.16-48.56-108.14-67.46-22.15-11.02-45.06-22.41-65.95-35.53l-5.2-3.56c-15.54-10.59-34.2-22.9-54.95-33.97-1.9-.71-3.8-1.42-5.71-2.1-46.14-16.74-89.6-25.22-129.18-25.22-25.67 0-50.22 3.57-72.95 10.62a225.87 225.87 0 0 0-18.28 6.55c-104.57 46.52-193.94 126.53-251.64 225.3-1.1 1.89-2.2 3.79-3.28 5.69-13.67 24.06-14.84 49.84-14.2 71.88.07 2.07.14 4.15.27 6.43l.56 2.11c5.45 20.7 11.63 44.17-1.97 57.65-31.12 34.3-47.02 76.02-47.25 124.14.13 1.23.27 2.46.44 3.66 2.02 15.77 6.7 29.85 11.21 43.47 3.18 9.58 6.19 18.63 8.4 28.37.7 1.93 1.4 3.84 2.13 5.76 12.83 34.02 30.87 64 53.58 89.03 3.89 4.9 8 9.9 12.21 14.86 34.23 40.17 75.43 77.2 111.8 109.89 5.33 4.46 10.76 8.8 16.15 12.89a421.1 421.1 0 0 0 156.92 74.53c8 1.2 16.15 2.37 24.26 3.47 2.07.28 4.14.56 6.23.8l.2.02.19-.07c29.5-9.64 58.27-14.33 87.93-14.33 39.6 0 80.16 8.53 124 26.07l.18.07h.18l3.5-.14c64.06-2.77 120.4-12.18 168.48-28.06-54.1 21.68-116.84 36.17-187.01 42.67l-.5.03c-.89.06-1.78.12-2.67.16a349.5 349.5 0 0 0-15.72-5.34c-21.3-13.57-43.92-19.97-70.28-19.97ZM193.16 497l-3.24.34c-2.93-.34-6.74-.1-10.32.2 69.81-7.05 133.84-22.48 188.97-45.36-3.87 2.3-7.77 4.57-11.7 6.77-47.94 19.01-102.74 31.93-163.71 38.05ZM588.4 140.43a485.72 485.72 0 0 0 6.06-154.72c-6.1-51.78-20.23-102.38-40.84-150.14a591.95 591.95 0 0 0-35.8-69.38 544.17 544.17 0 0 0-21.45-32.71 574.9 574.9 0 0 0-23.46-31.36 577.98 577.98 0 0 0-87.22-87.03c-1.1-.9-2.23-1.78-3.3-2.64-17.6-12.23-31.78-29.66-39.43-51.39a67.5 67.5 0 0 0-2.2-3.12c-6.9-9.02-16.52-15-32.24-16.51-.53-.27-1.1-.53-1.67-.78-11.86-5.4-27.03-7.66-42.53-16.47-.5-.5-.97-1-1.46-1.51-7.04-7.48-13.67-15.91-21.76-24.55a35.7 35.7 0 0 0-2.94-1.84c-9.07-5-20.6-5.86-36.56-4.12-7.1 3.48-14.2-6.97-19.54-10.93-.5-.48-.99-.96-1.47-1.46-8.74-9.06-16.55-20.16-26.8-29.27-.5-.22-1-.42-1.52-.6-6.13-2.18-13.4-1.65-21.93.8-.7.2-1.39.41-2.09.63-4.7 5.97-11.8 2.49-18.9 2.49 0-3.5-3.54-6.98-3.54-10.46-14.19-13.94-46.12 13.94-54.27-8.89l-.79-1.12a173.62 173.62 0 0 1-5.46-8.61l-1.65-1.14c-13.28-8.81-28.53-11.94-47.5-7.2l-2-.16-2-.15-2.06-.12c-29.71 27.39-40.36 23.9-72.43 7.64a209.58 209.58 0 0 0-10.51.9l-2.1.24c-26.27-26.7-47.56-2.3-70.58 18.01l-2.08.73-2.05.72a835.62 835.62 0 0 0-6.34 1.06c-26.81 5.06-48.1 19-76.45 14.73-.71.14-1.41.27-2.11.42-8.44 1.64-16.86 3.24-25.27 4.75l-2.05.36c-16.72 2.23-23.81 12.69-16.72 30.12-21.28 6.97-42.56 3.48-64.04 10.72l-2.15.34c-7.8 1.24-13.88 4.87-15.4 16.82-10.64 0-17.74-6.97-20.95 5.35a95.31 95.31 0 0 0-4.89 11.3l-.7 1.92c-12.48 26.75-33.77 51.15-60.86 61.42l-1.79 1.01a203.06 203.06 0 0 1-14.75 7.56l-.93.63c-25.57 17.41-47.47 34.74-44.17 66.76-.25.52-.5 1.03-.74 1.56-.97 2.08-1.9 4.2-2.76 6.32a29.3 29.3 0 0 0-.87 3.33c-2.68 17.6-16.87 35.02-23.97 48.95-7.09 27.9-14.19 69.73-27.93 102.6-.38.54-.75 1.1-1.11 1.65-4.8 7.17-9.68 13.7-13.53 21.25-4.07 12-4.64 25.13-2.98 38.9.04.42.1.79.13 1.17 6.4 26.16 2.85 57.53 12.06 84.54l.56 3.16.61 3.28.36 1.97c.1.66.18 1.33.24 2.01C-600.15 22-585.96 35.94-575.41 52l.05.07c4.6 5.32 3.3 11.55 2.82 16.94-.06.6-.1 1.18-.13 1.76.88 27.23 17.76 51.1 24.28 76.57l.48 1.95c18.7 36.55 15.17 81.87 48.28 98.19l1.08 1.8a709.5 709.5 0 0 0 47.46 69.34 642.62 642.62 0 0 0 32.51 38.58l8.6 9.24 8.4 8.72c2.82 3.06 5.43 6.03 8.4 9.17 2.91 3.08 5.95 6.3 8.78 9.18a542.42 542.42 0 0 0 38.54 35.72c.54.45 1.07.9 1.63 1.32 31.44-.7 52.72 6.27 57.72 42.16l1.77 1.13 1.79 1.12 1.83 1.13c9 8.26 19.7 12.37 30.55 16.5.64.25 1.28.5 1.92.73 31.63-4.21 49.37-.73 63.56 30.65 3.56 0 10.65 0 13.92 3.3l1.1.42c4.99 1.84 9.93 3.77 14.78 5.8l2.05.64c2.03.64 4.06 1.25 6.1 1.85 1.35.4 2.72.81 4.13 1 18.23-6.05 46.61-23.47 53.7 4.42 3.56-3.5 10.65 6.97 14.18 1.64l3.88-1.14c18.04-5.18 33.87-3.37 50.11 17.9.57.02 1.15.02 1.73.02 5.15 0 10.3 0 15.46-.02h2.14c15.39-.98 33.12-.98 47.31-.08l2.14-.01c11.48-.04 22.96-.08 34.44-.16l4.3-.03c22.98-21.61 47.82-25.1 69.05-4.87 1.4.05 2.79-.14 4.16-.36a697.64 697.64 0 0 0 55.69-10.91c14.7-5.47 28.89-5.47 41.47-11.3l2.06-.65a636.95 636.95 0 0 0 32.58-11.1c16.63-34.71 37.93-34.71 72.6-32.8.64-.34 1.28-.68 1.89-1.03a497.9 497.9 0 0 0 73.62-48.9c43.68-35.16 81-78.91 106.46-128.94 17.77-29.42 30.5-61.8 37.93-97.12a278.9 278.9 0 0 0 4.05-61.52c.2-3.2.34-6.39.46-9.58Z"/><path fill="#193536" d="M436.39 382.27c-49.56 32.76-105.67 48.68-171.57 48.68h-.01c-23.5 0-48.1-1.97-75.26-6.01l-6.3-.97c-68.17-19.32-123.47-32.23-179.24-41.84l-6.18-1.5c-79.34-19.8-268.14-82.44-307.4-236.28-.59-2.1-1.12-4.19-1.7-6.46-3.8-8.4-4.54-17.5-5.25-26.28-.62-7.82-1.22-15.2-3.77-22.15a96.66 96.66 0 0 1-.33-4.33c4.51-19.63 10.25-39.98 15.79-59.67 6.08-21.59 12.37-43.91 17.1-65.48l1.1-5.9c3.65-18.8 7.86-32.61 13.67-44.79l2.64-5.72c24.94-53.05 58.15-100.4 96.02-136.9 1.58-1.52 3.16-3.01 4.78-4.52 48.68-49.5 111.21-78.18 176.1-80.76 2.16-.13 4.34-.24 6.52-.31 29.1-1.02 58.94 3.06 88.67 12.13 1.18.35 2.37.73 3.5 1.08a727.7 727.7 0 0 1 17.22 7.26l5.7 2.51.3.08c72.64 4.68 135.58 40.29 187.07 105.81l5.5 3.58c39.1 25.25 79.71 53.1 108.74 91.27 1.47 1.59 2.91 3.18 4.35 4.78C477.76-41.48 505.57 12.3 516.8 69.45a298.34 298.34 0 0 1 3.3 20.64 588.65 588.65 0 0 1 3.03 60.34 548.6 548.6 0 0 1-.46 20.83c-3.75 77.6-13.83 164.33-86.27 211.01Zm88.1-210.93c.26-6.97.4-14 .4-20.9.08-19.97-.94-40.33-3.02-60.55-.84-6.9-1.97-13.9-3.3-20.78-11.3-57.46-39.25-111.54-83.09-160.72-1.44-1.6-2.88-3.2-4.28-4.73-29.17-38.35-69.9-66.3-109.16-91.63l-5.11-3.3c-51.8-65.81-115.1-101.6-188.16-106.36l-5.55-2.45a746.1 746.1 0 0 0-17.34-7.3c-1.2-.39-2.4-.75-3.58-1.12-29.92-9.12-59.96-13.23-89.27-12.21-2.19.08-4.38.18-6.54.31-65.33 2.6-128.3 31.48-177.27 81.27-1.6 1.49-3.19 3-4.77 4.52-38.03 36.65-71.36 84.18-96.4 137.44-.9 1.9-1.78 3.81-2.65 5.71-5.87 12.3-10.12 26.25-13.79 45.2-.38 1.97-.75 3.95-1.1 5.9-4.72 21.48-11 43.78-17.07 65.35-5.56 19.74-11.32 40.16-15.85 59.87l-.02.11v.13c.09 1.55.2 3.1.35 4.65l.06.21c2.5 6.76 3.09 14.06 3.7 21.78.73 8.95 1.48 18.2 5.35 26.73.54 2.14 1.07 4.25 1.65 6.33 15.34 60.1 55.32 112.6 118.84 156.06 64.89 44.4 139.08 68.82 189.88 81.5 2.07.5 4.13 1.02 6.25 1.52 55.76 9.6 111 22.5 179.2 41.84 2.16.33 4.3.67 6.44.98 27.23 4.06 51.94 6.03 75.52 6.04h.01c66.28 0 122.73-16.03 172.6-48.98 73.12-47.14 83.27-134.36 87.06-212.42Z"/><path fill="#193536" d="M499.85 264.65c6.25-39.02 3.87-80.07-.04-110.8-.6-6.66-1.32-13.49-2.2-20.27a712.68 712.68 0 0 0-9.73-57.89c-1.4-6.66-3-13.24-4.77-19.57-9.48-34.03-24.78-64.77-45.47-91.33-3.71-5-7.62-10-11.6-14.84a255.07 255.07 0 0 0-4.12-4.87c-39.25-49.88-76.05-83.98-115.83-107.31a207.3 207.3 0 0 0-5.34-3.06c-44.53-34.11-105.67-73.57-183.6-75.97a343.36 343.36 0 0 0-49.07-7.03c-2.06-.15-4.12-.27-6.07-.35-20.42-3.66-40.06-5.52-58.4-5.52-71.76 0-125.31 27.76-159.18 82.5a281.11 281.11 0 0 0-4.78 4.33c-55.52 51.6-88.1 126.35-94.22 216.15A280.88 280.88 0 0 0-256 69.64c-2.18 61.45 21.03 113.18 70.94 158.13 49.26 44.36 117.8 74.63 165.05 93.54l2.27.9c22.11 7.04 42.33 14.89 63.74 23.2l12.52 4.86 5.8 2.2c20.33 11.52 41.76 16.93 62.5 22.15 10.33 2.61 20.1 5.08 29.83 8.27l6.32 1.57c46.16 11.3 87.82 16.78 127.37 16.78 47.36 0 91.96-8.26 132.5-24.54 1.78-.68 3.44-1.46 5.15-2.22a162.7 162.7 0 0 1-37.4 19.34c-18 6.32-37.2 10.51-56.26 13.29-38.38 5.51-77.58 4.14-115.99-1.73-9.6-1.46-19.21-3.2-28.7-5.15l-14.55-3.12c-4.75-.8-9.47-1.78-14.18-2.84-18.84-4.27-37.27-10.46-55.57-17.2-18.33-6.7-36.54-14.03-55.37-20.27-18.97-6.13-37.8-10.63-55.15-18.65l-.17-.08-.23-.08c-29.59-10.47-58.97-21.53-87.46-34.36-28.45-12.89-56.2-27.34-81.61-45.12a300.52 300.52 0 0 1-35.98-29.22 223.17 223.17 0 0 1-30.19-34.94 210.26 210.26 0 0 1-21.86-40.67c-5.76-14.31-9.7-29.34-12.34-44.65a23.3 23.3 0 0 0 .96-7.2 33.57 33.57 0 0 0-1.15-7.34c-1.23-4.72-2.74-9.28-1.95-13.9v-.04l.03-5.49v-.09c-.7-9.74-1.1-19.5-.57-29.22.52-9.72 2.05-19.36 4.66-28.73l.03-.06v-.07a350.2 350.2 0 0 1 37.5-113.53 347.36 347.36 0 0 1 73.6-94.4l.13-.1.1-.12a227.18 227.18 0 0 1 40.96-41 211.64 211.64 0 0 1 50.33-28.81c18-7.24 37.02-11.94 56.32-14.01 19.3-2.1 38.87-1.56 58.08 1.28l.14.02h.16c12.9.3 25.8 1.73 38.53 4.04a292.91 292.91 0 0 1 18.95 4.16c6.3 1.56 12.44 3.42 18.75 5.3l.28.08.33.02c17.26.76 34.4 3.59 50.93 8.52a232.32 232.32 0 0 1 47.47 20.33c30.18 16.92 56.93 39.3 82.61 62.6l.23.2.26.17c24.3 14.2 47.48 30.09 68.54 48.48a329.4 329.4 0 0 1 55.62 62.17l.12.16.11.13a320.52 320.52 0 0 1 58.58 99.05c6.78 18.1 11.6 36.62 15.38 55.67 3.83 18.9 6.4 38.1 7.7 57.29 2.95 37.03.67 74.38-8.84 110.06Zm-5.45 18.06a215.03 215.03 0 0 1-18 38.95 171.02 171.02 0 0 1-36.52 43.67c-1.3 1.1-2.62 2.14-3.94 3.2-4.32 2.42-8.9 4.63-13.8 6.52-40.35 16.19-84.68 24.4-131.8 24.4-39.41 0-80.94-5.47-126.94-16.72-2.1-.52-4.21-1.04-6.25-1.56-9.74-3.19-20-5.78-29.9-8.28-20.63-5.2-41.94-10.57-62.17-22.02l-5.92-2.26-12.5-4.85c-21.45-8.33-41.7-16.2-63.8-23.23l-2.2-.87c-111.89-44.77-239.7-113.62-234.87-249.96.2-6.66.69-13.62 1.44-20.73 6.08-89.38 38.47-163.72 93.65-214.99 1.6-1.48 3.21-2.94 4.86-4.4l.16-.2c33.5-54.25 86.57-81.76 157.71-81.76 18.23 0 37.77 1.86 58.2 5.51a341.21 341.21 0 0 1 48.77 6.07c2.07.4 4.13.84 6.36 1.3 77.56 2.4 138.38 41.68 182.82 75.7 1.82 1.01 3.6 2.05 5.42 3.1 39.56 23.21 76.2 57.17 115.33 106.9a359.16 359.16 0 0 1 15.69 19.66c20.57 26.4 35.77 56.93 45.16 90.74a274.48 274.48 0 0 1 4.74 19.46 709.44 709.44 0 0 1 9.74 57.74c.87 6.77 1.59 13.57 2.2 20.24 4.46 35.48 7 84.8-3.64 128.66Zm13.98-186.89c-3.83-19.1-8.87-38.36-15.84-56.73C478.8 2.3 458.52-32.22 432.5-61.77a336.5 336.5 0 0 0-56.99-63.02c-21.44-18.53-45-34.5-69.44-48.66-25.87-23.2-52.98-45.66-83.76-62.73a238.09 238.09 0 0 0-48.7-20.57 216.07 216.07 0 0 0-51.9-8.44c-6.11-1.79-12.4-3.66-18.69-5.19a298.55 298.55 0 0 0-19.3-4.13 250.7 250.7 0 0 0-39.17-3.9 233.68 233.68 0 0 0-59.1-1 216.65 216.65 0 0 0-57.39 14.58 215.94 215.94 0 0 0-51.12 29.59 231.04 231.04 0 0 0-41.3 41.73 350.83 350.83 0 0 0-73.72 95.54A352.76 352.76 0 0 0-275.26 16.5c-2.6 9.51-4.1 19.3-4.57 29.13-.5 9.83-.03 19.66.72 29.42V80.5c-.35 2.43-.2 4.99.28 7.36.47 2.44 1.2 4.77 1.8 7.08 1.27 4.58 1.62 9.32.23 13.8l-.01.03-.05.15.01.22c2.75 31.22 12.9 62.25 30.33 88.95 8.6 13.4 18.75 25.8 29.94 37.15 11.22 11.34 23.58 21.5 36.46 30.83 25.91 18.56 54.1 33.55 83 46.45 28.88 12.91 58.44 23.95 88.16 34.38 18.28 8.34 37.74 12.92 55.97 18.8 18.4 6.03 36.61 13.29 55.1 20.01 18.48 6.75 37.32 13.03 56.76 17.38 4.86 1.08 9.75 2.08 14.67 2.9l14.22 3c9.72 1.99 19.43 3.71 29.22 5.19 39.1 5.86 79.22 7.18 118.55 1.42 19.7-2.94 39.03-7.17 58-13.88a169.4 169.4 0 0 0 51.76-30.12c15.31-13 28.12-28.7 38.16-45.84 10.11-17.15 17.65-35.65 23-54.65 10.76-38.05 13.1-78.05 9.92-117a443.26 443.26 0 0 0-8-58.29Z"/><path fill="#193536" d="M386.34 378.57a479.3 479.3 0 0 1-88.66 8.21c-15.87 0-32.16-.77-48.4-2.3l-4.13-.4c-.4-.08-.79-.14-1.2-.23l.55.07 2.55.34 4.26.39c9.9.85 19.8 1.27 29.43 1.27 34.44 0 67.71-5.5 98.82-16.34 56.75-18.74 97.98-67.64 113.02-125.37-8.34 65.57-38.8 122.83-106.24 134.36Zm-226.45-9.62a665.6 665.6 0 0 1-12.74-3.3 4443.3 4443.3 0 0 0-39.98-14.75l-6.85-2.5c-13.6-5.36-27.63-10.17-41.18-14.83-28.48-9.8-55.38-19.03-80.16-33.19l-2.14-.96c-89.79-40.77-209.3-110.07-210.55-240.49.38-6.89 1.08-14.07 2.08-21.38 5.14-69.89 36.9-134.75 89.42-182.62 1.61-1.47 3.25-2.93 4.9-4.37l.2-.25c26.96-49.79 74.02-75.03 139.87-75.03 19.9 0 41.87 2.3 65.43 6.9 2.07.08 4.11.2 6.16.32 14.02.91 28.34 2.73 42.58 5.4l6.33 1.24c45.89 4.52 89.65 23.6 131.96 42.02 10.78 4.7 21.93 9.55 32.76 14.01 1.93.9 3.83 1.82 5.76 2.76 45.96 22.82 87.83 60.33 128.1 114.72 1.21 1.43 2.46 2.86 3.68 4.3 3.67 4.36 7.27 8.8 10.68 13.2a247.22 247.22 0 0 1 37.25 69.3c2.12 6.1 4.01 12.4 5.68 18.65a605.66 605.66 0 0 1 9.43 57.5c.15 1.08.23 2.18.34 3.27l-.34-1.54a436.9 436.9 0 0 0-17.77-58.02 254.36 254.36 0 0 0-7.65-18 266.23 266.23 0 0 0-53.27-76.37c-1.6-1.54-3.18-3.04-4.74-4.47-38.34-45.13-80.47-91-136.77-112.65-2-.76-4.03-1.5-6.08-2.21-19.23-6.41-38.62-11.32-59.15-16.51-19.11-4.84-38.86-9.84-58.81-16.23a516.05 516.05 0 0 0-68.27-10l-.47-.08C47.2-192.26 17.85-197.5-10.5-197.5c-51.44 0-87.25 17.67-112.66 55.58-1.06.82-2.14 1.62-3.21 2.42l-1.84 1.37c-57.27 43-88.54 106.93-85.77 175.24-.46 3.64-.82 7.32-1.09 11.12 14.38 114.76 111.45 183.3 194.4 230.19l1.9 1.06c31.35 30.45 67.04 43.1 104.82 56.49 7.48 2.65 15.24 5.4 22.93 8.26l3.8 1.87c10.02 4.9 18.23 8.97 25.94 12.88 5.41 1.92 10.91 3.8 16.36 5.56 1.09.36 2.2.7 3.25 1.04a240 240 0 0 0 24.06 7.5c-6.3-1.05-12.68-2.16-19.29-3.34l-3.22-.8ZM-127.13-136.7l1.83-1.36a331.7 331.7 0 0 0 3.35-2.51l.2-.21c25.05-37.47 60.4-54.91 111.24-54.91 28.2 0 57.46 5.2 85.76 10.24l.56.1 6.21.54a511.52 511.52 0 0 1 61.81 9.41c19.93 6.39 39.71 11.4 58.84 16.24 20.5 5.18 39.86 10.08 59.01 16.47 2.03.7 4.04 1.43 6.02 2.2 55.89 21.48 97.87 67.17 136.13 112.2 1.63 1.5 3.19 2.99 4.74 4.5a265.55 265.55 0 0 1 52.97 75.85 317.6 317.6 0 0 1 7.57 17.89 439.1 439.1 0 0 1 17.7 57.78 348.87 348.87 0 0 1 3.94 20c.08.2.11.41.15.62 3.79 25.87 5.2 53.25 3.26 79.8-11.03 63.86-54 119.53-115.18 139.75-30.95 10.78-64 16.25-98.25 16.25a343.55 343.55 0 0 1-33.49-1.65l-2.51-.33c-29.27-3.84-56.9-7.47-85.82-18.26l-3.28-1.04a579.32 579.32 0 0 1-16.2-5.51 2074.3 2074.3 0 0 0-25.87-12.85l-3.87-1.9c-7.8-2.9-15.54-5.65-23.05-8.31-37.62-13.33-73.15-25.91-104.25-56.16l-2.17-1.26C-102.37 230.2-199 162-213.27 48.2c.26-3.6.63-7.25 1.08-11.01-2.74-67.86 28.27-131.24 85.07-173.9Zm623.98 338.72c-.04-9.94-.53-19.87-1.36-29.7a190.93 190.93 0 0 1 1.36 29.7Zm-4.17-54.03c-.11-.68-.19-1.36-.3-2.02a534.42 534.42 0 0 0-2-20.57 624.85 624.85 0 0 0-9.52-57.7 262.37 262.37 0 0 0-5.72-18.81 248.52 248.52 0 0 0-37.55-69.82c-3.4-4.42-7-8.87-10.68-13.24-1.25-1.46-2.47-2.9-3.68-4.28-40.39-54.57-82.48-92.25-128.7-115.2-1.94-.95-3.83-1.88-5.8-2.8-10.89-4.48-22.02-9.33-32.79-14.01-42.45-18.5-86.33-37.62-132.43-42.16a360.94 360.94 0 0 0-49.06-6.66c-2.06-.12-4.12-.23-6.06-.3-23.53-4.6-45.62-6.92-65.64-6.92-66.5 0-114.06 25.51-141.38 75.84a304.65 304.65 0 0 0-4.81 4.28c-52.87 48.19-84.82 113.46-90 183.75-.98 7.31-1.7 14.54-2.08 21.53 1.26 131.5 121.36 201.18 211.6 242.15l2.06.93c24.87 14.2 53.1 23.9 80.4 33.29 13.54 4.65 27.53 9.46 41.12 14.81l6.88 2.5a4287.3 4287.3 0 0 1 40.04 14.77 647.63 647.63 0 0 0 16.14 4.16c11.8 2.12 23.02 3.98 33.87 5.79 16.3 2.7 31.7 5.26 48.29 8.56a520.19 520.19 0 0 0 52.8 2.72c30.07 0 60-2.78 88.95-8.24 73.88-12.63 104-79.19 109.31-151.9a190.49 190.49 0 0 0-3.26-80.45Z"/><path fill="#193536" d="M-192.17 21.25c14.35-46.31 35.55-104.66 72.38-145.18 1.38-1.52 2.78-3.01 4.2-4.48l.16-.23c19.19-38.74 54.18-58.37 103.96-58.37 22.98 0 49.18 4.2 78 12.53 2.06.31 4.1.64 6.15.99 37.87 6.47 77.49 19.52 124.65 41.05l2.24 1.02 3.69 1.68.3.08c74.9 5.79 140.57 44.82 200.81 119.4a268.96 268.96 0 0 1 37.86 46.55 256.68 256.68 0 0 1 10.03 17.11c11.3 21.87 20.43 46.73 26.41 71.89a327.4 327.4 0 0 1 4.02 19.44 192.3 192.3 0 0 1-14.28 137.3c5.56-14.98 8.63-31.34 9.62-48.13.19-1.2.45-2.38.6-3.58 2.88-21.44 1.44-43.16-2.53-64.2a274.9 274.9 0 0 0-7.88-31.15l-4.97-15.12a248.13 248.13 0 0 0-5.72-15.09c-8.3-19.87-19.28-38.71-33.26-55.36a182.49 182.49 0 0 0-17.4-17.96c-1.55-2.05-3.1-4.12-4.7-6.17a470.6 470.6 0 0 0-11.4-14.13 263.9 263.9 0 0 0-3.56-3.95c-1.17-1.31-2.39-2.62-3.52-3.84-54.3-73.63-113.3-111.03-185.6-117.7-2.03-.79-4.06-1.56-6.09-2.32-47.06-17.65-92.48-27.55-135-29.43-2.17-.1-4.34-.16-6.48-.21a394.53 394.53 0 0 0-28.23-1.07c-49.87 0-87.7 11.68-115.52 35.62l-2.91 1.7a257.47 257.47 0 0 0-25.68 17.58c-28.12 24.41-43.47 59.52-44.36 101.36a161.1 161.1 0 0 0-2.99 19.66v.12l.02.12c16.1 81.47 71.14 151.05 168.27 212.74l.25.15c.55.36 1.1.7 1.65 1.07l.28.12c6.32 1.64 9.82 11.81 9.83 11.83 11.48 51.22 50.57 55.5 89.63 55.5 3.15 0 6.3-.02 9.43-.04 6.5-.05 12.9-.1 19.1.06l11.3 5.1c3.9 1.97 7.81 3.96 11.72 5.96 34.9 17.81 71 36.22 109.01 36.22 4.8 0 9.6-.29 14.07-.86l4.13.45a360.94 360.94 0 0 0 36.95 1.93 344.4 344.4 0 0 0 70.21-7.25c15.04-3.09 28.34-8.38 39.86-15.8-28.08 24.24-63 37.88-101.28 39.02-19.62.59-39.74-.29-59.87-2.6l-4.3-.51c-29.42-.33-56.13-9.87-84.4-19.95-9.9-3.53-20.13-7.18-30.36-10.35l-3.72-1.53a1807.1 1807.1 0 0 1-22.34-9.42l-4.03-1.73-.3-.08c-56.18-4-94.04-23.37-126.56-64.78l-.24-.2-3.8-2.38c-99.42-62.57-158.24-135.36-179.8-222.53.48-5.8 1.26-11.77 2.3-17.67ZM22.92 271.08c8.01 11.33 18.72 20.94 31.3 27.1 12.54 6.27 26.51 9.14 40.4 9.89 13.83.75 27.67-.48 41.29-2.63l7.47 3.42c20.41 12.4 40.75 25.39 63.15 34.35 11.2 4.45 22.91 7.8 34.96 9.14 11.96 1.35 24.2.57 35.89-2.4 21.17 2.07 42.77 1.85 63.91-1.68a207.1 207.1 0 0 0 60.92-20.19 214.68 214.68 0 0 0 27.47-16.81c8.83-5.84 17.4-13.13 24.21-21.56 9.93-11.95 16.71-26.12 20.88-40.93-2.42 17.25-7.2 33.72-15.08 48.23-.42.82-.9 1.6-1.36 2.4a178.32 178.32 0 0 1-19.47 24.73c-13.95 12.89-31.53 21.55-52.56 25.87a342.32 342.32 0 0 1-69.83 7.21c-12.12 0-24.47-.64-36.76-1.92-1.37-.14-2.75-.3-4.33-.45-4.6.57-9.34.86-14.06.86-37.58 0-73.47-18.32-108.19-36.02-3.9-2-7.82-4-11.77-5.99l-11.5-5.18-.35-.08c-6.25-.18-12.76-.13-19.33-.08-3.13.03-6.27.05-9.42.05-39.92 0-76.67-4.14-87.9-54.2-.03-.1-.2-.63-.53-1.4 3 6.37 6.47 12.51 10.59 18.27ZM388.08 16.82 375.43 7.6c-24.63-22.74-50.74-44.35-79.83-61.9a297.51 297.51 0 0 0-45.81-22.77 252.3 252.3 0 0 0-48.8-13.6c-32.6-13.83-66.55-25.6-101.48-33.32a422.67 422.67 0 0 0-53.34-8.4c-17.72-1.9-36.13-2.6-54.28-.94-18.17 1.65-36.34 5.6-53.39 12.63a174.27 174.27 0 0 0-24.37 12.56 153.52 153.52 0 0 0-22.27 16.16c-13.9 11.96-25.6 26.63-33.47 43.21a114.18 114.18 0 0 0-8.56 25.95 109.37 109.37 0 0 0-1.82 26.88 122.51 122.51 0 0 0-1.88 20.64v.18l.01.09a274.24 274.24 0 0 0 22 63.48 301.62 301.62 0 0 0 36.39 56.62c28.24 35 63.19 64.07 100.46 89.06a166.2 166.2 0 0 0 6.54 16.89c-1.67-3.43-4.87-8.53-9.63-9.85l-1.55-1L.1 240c-96.65-61.37-151.43-130.54-167.46-211.45.56-6.36 1.55-12.85 2.96-19.47.9-41.5 16.04-76.16 43.73-100.19a255.16 255.16 0 0 1 25.46-17.42l3.03-1.8c27.61-23.74 65.06-35.28 114.47-35.28 8.84 0 18.02.35 28.14 1.07 2.17.05 4.33.12 6.5.2 42.32 1.88 87.55 11.74 134.44 29.33 2.06.77 4.12 1.56 6.18 2.36l.24.05C269.61-106 328.22-68.82 382.3 4.48c1.2 1.3 2.42 2.6 3.6 3.9l3.52 3.92c3.86 4.61 7.61 9.24 11.14 13.78-4.36-3.32-8.26-6.16-12.47-9.26ZM277.4 348.15h-.16l-.15.03a98.55 98.55 0 0 1-35.4 2.4c-11.85-1.3-23.41-4.62-34.48-9.02-22.2-8.88-42.47-21.83-62.92-34.25l-.05-.03-.05-.01-7.76-3.56-.26-.12-.27.04c-13.62 2.17-27.44 3.4-41.18 2.66-13.71-.75-27.44-3.57-39.7-9.7-12.3-6.03-22.76-15.4-30.63-26.54-7.95-11.12-13.56-23.76-17.78-36.74l-.1-.3-.25-.17c-37.28-24.96-72.17-53.99-100.33-88.87a300.34 300.34 0 0 1-36.16-56.3 271.83 271.83 0 0 1-21.83-62.92 152.2 152.2 0 0 1 4.44-20.07l.05-.14.01-.38a112.9 112.9 0 0 1 13.9-48.95c8.15-14.92 19.6-27.89 32.79-38.7a177.58 177.58 0 0 1 21-14.56 161.97 161.97 0 0 1 23-11.58c15.78-6.5 32.69-10.3 49.86-11.92 17.26-1.64 34.54-1.07 52.12.74a411.62 411.62 0 0 1 51.91 7.98c34.33 7.44 67.62 18.84 100.23 32.55l.55.24.64.1c32.41 5.28 63.38 17.73 91.59 34.73 28.3 16.98 54.1 38.06 78.84 60.28l.23.21.23.15 12.96 9.22c4.2 3.03 8.78 6.3 12.69 9.21a162.53 162.53 0 0 1 22.2 21.45c13.49 15.66 24.29 33.68 32.5 52.7 2.06 4.79 3.99 9.63 5.7 14.48l5.1 14.93a260.7 260.7 0 0 1 8 30.17c4.1 20.36 5.72 41.32 3.18 61.83-2.46 20.42-9.43 40.53-22.31 56.67-6.4 8.15-14.02 14.94-22.77 21a213.06 213.06 0 0 1-26.52 16.93c-37.02 20.22-80.4 27.46-122.66 24.13Zm-293.02-85.2c1.22.78 2.44 1.54 3.68 2.3 32.81 41.73 71 61.27 127.6 65.33l3.89 1.68c7.14 3.07 14.67 6.25 22.37 9.42l3.8 1.56a756.58 756.58 0 0 1 30.36 10.36c28.42 10.14 55.26 19.72 84.9 20.05l4.2.5a420.92 420.92 0 0 0 60.12 2.62c44.48-1.34 84.5-19.37 114.65-51.18a104.3 104.3 0 0 0 19.93-25.25c29.78-45.5 38.99-102.96 24.59-156a313.53 313.53 0 0 0-4.05-19.46c-6.03-25.3-15.2-50.3-26.56-72.3a258.78 258.78 0 0 0-10.12-17.25 272.99 272.99 0 0 0-38-46.78c-60.5-74.86-126.51-114.1-201.88-119.98l-3.53-1.6-2.25-1.03c-47.31-21.6-87.06-34.69-125.09-41.19-2.06-.35-4.12-.69-6.08-.97-28.86-8.34-55.23-12.58-78.38-12.58-50.48 0-85.98 19.93-105.52 59.25-1.4 1.45-2.78 2.93-4.14 4.42-37.06 40.78-58.35 99.38-72.79 145.97a203.34 203.34 0 0 0-2.35 18.08l-.02.14.04.15c21.65 87.7 80.73 160.88 180.63 223.75Z"/><path fill="#193536" d="m287.26 320.12-.19.05a87.69 87.69 0 0 1-25.15 3.76c-31.29 0-58.18-17.07-86.66-35.14a716.67 716.67 0 0 0-23.4-14.45l-.28-.12a255.1 255.1 0 0 0-3.8-1.7l-.21-.09-.24.02c-8.57.88-16.19 1.31-23.3 1.31-46.26 0-72.16-18.99-92.37-67.71l-.28-.36c-.94-.74-1.9-1.47-2.85-2.19l-.74-.56C-45.73 149.76-89.98 90.92-107.47 23.26a92.23 92.23 0 0 1 2.06-19.76c8.49-63.8 74-86.53 132.5-86.53 12 0 23.85.95 35.16 2.82 57.2 10.5 102.19 21.64 141.59 35.06 2.05.7 4.11 1.42 6.2 2.15 52.7 15.63 91.2 35.1 121.32 61.33l2.96 2c4.74 3.29 9.5 6.76 14.17 10.3 26.63 20.77 48.34 42.73 64.49 65.25 3.56 4.93 6.9 9.97 9.96 15.04 36.26 48.37 40.2 121.92 9.55 178.88-10.61 21.05-31.98 35.2-53.24 35.2a422.24 422.24 0 0 1-87.67-4.26l-4.32-.62Zm92.03 6.66c21.86 0 43.91-14.54 54.79-36.17 30.95-57.52 26.98-131.85-9.63-180.67a242.8 242.8 0 0 0-10-15.1C398.2 72.18 376.38 50.1 349.6 29.2a370 370 0 0 0-17.13-12.28C302.26-9.42 263.51-29 210.61-44.7c-2.06-.72-4.12-1.44-6.2-2.14-39.47-13.45-84.54-24.6-141.84-35.13a218.3 218.3 0 0 0-35.48-2.85c-59.26 0-125.64 23.14-134.27 88.02a91.91 91.91 0 0 0-2.06 20.29c17.37 67.34 63.13 128.2 135.95 180.87l.73.56 2.64 2.02c20.53 49.37 46.88 68.6 93.95 68.6 7.1 0 14.71-.42 23.25-1.28 1.19.52 2.36 1.05 3.55 1.59l.18.08c7.87 4.59 15.71 9.55 23.28 14.36 28.7 18.22 55.81 35.43 87.63 35.43 8.45 0 17.02-1.27 25.45-3.78l3.98.57a431.19 431.19 0 0 0 64.56 4.95c7.81 0 15.7-.22 23.38-.68Z"/><path fill="#193536" d="m293.9 307.9-3.53-.32-.87-.08-.15.04a99.18 99.18 0 0 1-26.29 3.6c-39.68 0-74.91-24.75-104.3-49.05l-3.64-1.95-3.03-1.63-2.08-1.06c-.87-.42-1.73-.84-2.6-1.24l-.25-.08c-46.21-6.25-73.88-24.8-95.49-64.04l-.19-.24a201.7 201.7 0 0 0-2.58-2.26l-.8-.7C-8 142.09-47.2 89.29-68.4 32.15a82.03 82.03 0 0 1-.59-11.02c2.55-53.19 50.24-77.42 93.46-77.42 5.39 0 10.85.36 16.22 1.07a852.94 852.94 0 0 1 285.9 93.82 268.21 268.21 0 0 1 53 49.06c3.8 4.61 7.55 9.42 11.03 14.28 43.04 65.82 59.71 114.1 50.88 147.59-4.16 15.8-14.36 28.01-30.23 36.31-34.4 18.7-74.1 26.17-117.38 22.06Zm149.35-57.92c8.94-34-7.77-82.74-51.15-149.05a274.15 274.15 0 0 0-49.82-52.75 258.42 258.42 0 0 0-14.74-11.09 854.76 854.76 0 0 0-286.6-94.08c-5.47-.72-11-1.09-16.47-1.09-44.05 0-92.65 24.77-95.26 79.16-.06 3.69.15 7.49.66 11.48C-48.78 90.2-9.4 143.26 46.92 190.24l.8.69 2.45 2.15c21.88 39.66 49.89 58.45 96.6 64.8l2.43 1.17 5.06 2.66 3.5 1.85c29.48 24.4 65.04 49.36 105.3 49.36 8.87 0 17.82-1.21 26.59-3.62l.57.06 3.52.32c43.57 4.13 83.66-3.4 118.36-22.26 16.37-8.54 26.83-21.13 31.15-37.45Z"/><path fill="#193536" d="M414.04 252.09c-10.04 18.08-25.84 29.72-45.74 33.66a257.52 257.52 0 0 1-76.07 2.94l-4.17-.43c-3.8.42-7.65.63-11.45.63-36.38 0-68.24-18.7-100.4-39.56l-3.08-1.8-.57-.33a443.8 443.8 0 0 1-21.68-13.07c-25.97-14.03-48.23-33.89-62.36-48.08l-3.2-3.08A491.68 491.68 0 0 1-13.36 54.2a78.72 78.72 0 0 1-2.55-12.65c-3.6-19.26 3.85-36.31 17.33-39.65A249.99 249.99 0 0 1 59.75-4.9c78.33 0 154.2 33.93 227.59 66.73 18.56 8.3 36.07 16.14 53.65 23.44 6.4 3.9 12.54 7.98 18.18 12.06 4.78 4.59 9.7 9.04 14.48 13.34 18.45 16.68 35.92 32.43 44.4 54.9 10.99 28.34 9.44 62.3-4.01 86.52Zm5.72-87.17c-8.68-22.84-26.26-38.74-44.9-55.57-4.77-4.3-9.7-8.73-14.55-13.38a264.1 264.1 0 0 0-18.53-12.28c-17.65-7.36-35.16-15.19-53.72-23.48C214.52 27.32 138.47-6.68 59.75-6.68 39.62-6.68 19.85-4.38.99.15-13.43 3.73-21.46 21.66-17.7 41.8a79.25 79.25 0 0 0 2.67 13.05 493.18 493.18 0 0 0 99.1 129.41l3.17 3.05c14.2 14.27 36.6 34.25 62.7 48.35a433.68 433.68 0 0 0 21.7 13.08l.56.33c1.02.6 2.05 1.18 3.04 1.77 32.37 20.99 64.48 39.83 101.36 39.83 3.87 0 7.81-.2 11.45-.63l3.98.42c9.54 1.04 19.2 1.56 28.68 1.56a253.9 253.9 0 0 0 47.93-4.52c20.42-4.05 36.67-16 46.94-34.55 13.72-24.66 15.34-59.22 4.17-88.03Z"/><path fill="#193536" d="M407.1 235.1a53.27 53.27 0 0 1-15.34 21.18c-3.34 2.88-7.09 5.28-10.88 7.6-3.82 2.3-7.73 4.43-11.78 6.35-8 3.86-16.4 6.9-25.04 9-17.28 4.26-35.43 4.5-52.9 1.48-8.88-1.58-17.64-3.07-26.19-5.53a166.8 166.8 0 0 1-24.96-9.1c-16.06-7.38-30.84-17.58-42.47-30.61l-.2-.22-.26-.2a817.48 817.48 0 0 1-90.34-75.84A719.35 719.35 0 0 1 29.8 71.36c-1.4-3.58-2.6-7.2-3.43-10.84l-.06-.28-.12-.34a25.37 25.37 0 0 1-1.1-13.82 26.86 26.86 0 0 1 6.6-12.43c6.54-7.2 16.92-11.5 26.33-10.04l.25.04.16.01c45.11 3.17 90.07 9.02 134.19 18.86 44.06 9.81 87.3 23.67 128.32 42.5a247.72 247.72 0 0 1 22.59 14.06 159.2 159.2 0 0 1 20.15 17.27 188.36 188.36 0 0 1 31.83 42.5c8.37 15.56 14.66 32.62 15.57 50.32.38 8.8-.68 17.76-3.98 25.94Zm-40.73-121.35a163.69 163.69 0 0 0-20.34-18.06 250.68 250.68 0 0 0-22.81-14.8l-.04-.03-.11-.05C282 61.06 238.6 46.26 194.27 35.55 149.9 24.8 104.63 18.09 59.2 14.07l.4.05a37.73 37.73 0 0 0-19.4 1.99 42.81 42.81 0 0 0-16.09 10.58 36.6 36.6 0 0 0-9.31 17.2 34.03 34.03 0 0 0 1.47 19.43 89.6 89.6 0 0 0 4.13 12.44l.27.65.4.53a729.87 729.87 0 0 0 79.99 88.1 824.79 824.79 0 0 0 92.27 74.7c12.49 13.38 28 23.62 44.6 30.87a172.05 172.05 0 0 0 25.85 8.9c8.8 2.37 17.86 3.73 26.7 5.15 18.06 2.79 36.67 2.2 54.32-2.49a130.67 130.67 0 0 0 25.46-9.66c4.06-2.04 8-4.27 11.83-6.68a81.67 81.67 0 0 0 11.02-8 57.15 57.15 0 0 0 15.57-22.11 68.59 68.59 0 0 0 4.21-26.62c-.64-18.1-6.7-35.57-14.97-51.53a190.96 190.96 0 0 0-31.56-43.82Z"/><path fill="#193536" d="M390.4 238.39c-7.4 12.72-19.33 20.87-32.86 22.36a183.32 183.32 0 0 1-27.54 2.08c-10.53 0-21.26-.9-31.87-2.69a205.09 205.09 0 0 1-19.33-4.22 333.73 333.73 0 0 1-8.57-2.62c-10.89-2.1-20.61-7.31-30.91-12.82-5.26-2.82-10.7-5.73-16.22-8.14-1.24-.7-2.46-1.42-3.69-2.13-52.48-30.89-94.6-78.62-133.15-124.74A89.54 89.54 0 0 1 79.7 91.5c23.14-20.14 51.9-30.34 85.48-30.34 44.18 0 97.23 17.52 157.7 52.08 4.96 3.07 9.85 6.27 14.4 9.5 27 19.13 45.69 40.75 55.58 64.28 7.35 16.36 6.4 36.04-2.47 51.37Zm-52.1-117.1a272.38 272.38 0 0 0-14.51-9.58c-60.75-34.73-114.1-52.34-158.6-52.34-34.26 0-63.58 10.5-87.13 31.18l-.45.4.2.56a89.26 89.26 0 0 0 6.97 14.97c38.74 46.36 80.98 94.23 133.71 125.26 1.23.73 2.47 1.44 3.8 2.2 5.54 2.41 10.94 5.31 16.17 8.11 9.97 5.33 20.27 10.84 31.32 12.98a260.91 260.91 0 0 0 8.53 2.6 208 208 0 0 0 19.52 4.26 194.72 194.72 0 0 0 32.17 2.72c9.32 0 18.68-.7 27.77-2.1 14.06-1.53 26.52-10.01 34.18-23.24 9.13-15.8 10.11-36.1 2.57-52.95-10-23.83-28.94-45.71-56.22-65.03Z"/><path fill="#D5B38E" d="M83.34 83.95c-.5.02-1 .03-1.51.03H50.42V97H32.5V56.59h17.92v18.85l4.71-6.23H81.1c6.35 0 10.87-2.98 10.87-8.94 0-2.75-1-5-2.7-6.63-1.94-1.84-4.8-2.87-8.17-2.87H32.5L24 36h57.83c6.27 0 11.9 1.47 16.46 4.1l.14.08.13.08.14.09.14.08.13.08.13.08.14.09.13.08.13.09.13.09A22.59 22.59 0 0 1 110 60.27c0 14-11.21 23.13-26.66 23.68Z"/></g></svg>