<svg width="920" height="98" viewBox="0 0 920 98" fill="none" xmlns="http://www.w3.org/2000/svg">
<path d="M675.148 8.41909H653.586C630.362 8.41909 613.094 26.8532 613.094 49.0527C613.094 71.251 630.362 89.0129 653.586 89.0129H675.148V97.4856H700.791V89.0129H722.179C745.402 89.0129 762.846 71.251 762.846 49.0527C762.846 26.8532 745.402 8.41909 722.179 8.41909H700.791V0.280273H675.148V8.41909ZM832.303 8.41909H810.74C787.518 8.41909 770.248 26.8532 770.248 49.0527C770.248 71.251 787.518 89.0129 810.74 89.0129H832.303V97.4856H857.945V89.0129H879.333C902.556 89.0129 920 71.251 920 49.0527C920 26.8532 902.556 8.41909 879.333 8.41909H857.945V0.280273H832.303V8.41909ZM605.692 49.5411C605.692 21.2821 578.607 2.19707 547.961 2.19707C517.316 2.19707 490.232 21.2821 490.232 49.5411C490.232 77.799 517.316 96.8851 547.961 96.8851C578.607 96.8851 605.692 77.799 605.692 49.5411ZM83.3338 75.7993C82.6359 75.8262 81.9276 75.8396 81.2145 75.8396H37.0992V95.3134H11.9318V34.8666H37.0992V63.0673L43.7222 53.7455H44.6423H80.1863C89.1008 53.7455 95.4436 49.2857 95.4436 40.3683C95.4436 36.2647 94.0501 32.8882 91.6516 30.4572C88.9321 27.7024 84.9216 26.1643 80.1863 26.1643H11.9318L0 4.07017H81.2157C90.0278 4.07017 97.942 6.26479 104.332 10.2059L104.335 10.207L104.528 10.3269L104.72 10.449L104.912 10.5711L105.102 10.6944L105.292 10.8176L105.481 10.9431L105.668 11.0697L105.854 11.1974L106.04 11.3251L106.225 11.455C115.251 17.8272 120.783 27.9522 120.783 40.3683C120.783 61.3152 105.035 74.968 83.3338 75.7993ZM196.502 65.7414L195.947 70.0321C194.93 72.816 192.556 74.4527 189.844 74.4527H175.651L168.437 94.6804H190.86C203.407 94.6804 214.428 86.5237 218.497 75.4318L243.589 4.40065H217.988L204.026 44.4158L167.641 44.3766L154.228 44.3643L164.071 37.9328L151.838 4.07017H126.607L147.378 65.2261L196.502 65.7414ZM403.977 32.7605V4.07017H379.157V94.6804H403.977V61.4922H437.754L460.892 94.6804H490.671L458.342 49.3753L488.625 4.07017H459.705L437.072 39.3869H393.701L403.977 32.7605ZM258.801 4.07017V94.3477H332.101C351.756 94.3477 365.484 81.0455 365.484 64.0599C365.484 46.5858 351.756 34.5406 332.101 34.5406H283.529V25.6041H341.054L353.963 4.07017H258.801ZM517.502 49.5411C517.502 33.0417 530.875 22.5872 547.961 22.5872C564.863 22.5872 578.236 33.0417 578.236 49.5411C578.236 66.0394 564.863 76.4939 547.961 76.4939C530.875 76.4939 517.502 66.0394 517.502 49.5411ZM283.529 55.7474H330.406C338.038 55.7474 340.58 58.9918 340.58 64.0599C340.58 69.454 338.206 72.8149 330.574 72.8149H273.216L283.529 66.1212V55.7474ZM675.148 30.7787V66.6545H655.818C646.384 66.6545 638.057 58.1392 638.057 48.8846C638.057 39.4608 645.86 30.7787 655.818 30.7787H675.148ZM700.791 30.7787H719.946C729.904 30.7787 737.708 39.4608 737.708 48.8846C737.708 58.1392 729.38 66.6545 719.946 66.6545H690.323L700.791 59.8913V30.7787ZM832.303 30.7787V66.6545H812.973C803.539 66.6545 795.211 58.1392 795.211 48.8846C795.211 39.4608 803.015 30.7787 812.973 30.7787H832.303ZM857.945 30.7787H877.1C887.059 30.7787 894.863 39.4608 894.863 48.8846C894.863 58.1392 886.535 66.6545 877.1 66.6545H847.477L857.945 59.8913V30.7787Z" fill="#193536"/>
</svg>
