<svg width="95" height="74" viewBox="0 0 95 74" fill="none" xmlns="http://www.w3.org/2000/svg">
<path d="M65.3549 58.1737C64.8118 58.1955 64.2605 58.2064 63.7056 58.2064H29.3726V74H9.78594V24.9765H29.3726V47.8478L34.527 40.2877H35.2431H62.9054C69.8431 40.2877 74.7794 36.6706 74.7794 29.4385C74.7794 26.1104 73.6949 23.372 71.8283 21.4004C69.7118 19.1662 66.5906 17.9187 62.9054 17.9187H9.78594L0.5 0H63.7065C70.5646 0 76.7238 1.77988 81.6972 4.97622L81.8493 5.07434L81.9986 5.17338L82.148 5.27241L82.2965 5.37235L82.444 5.4723L82.5907 5.57405L82.7364 5.67672L82.8813 5.7803L83.0261 5.88388L83.17 5.98927C90.1947 11.1572 94.5 19.3688 94.5 29.4385C94.5 46.4268 82.244 57.4995 65.3549 58.1737Z" fill="#224646"/>
</svg>
