<svg width="96" height="96" viewBox="0 0 96 96" fill="none" xmlns="http://www.w3.org/2000/svg">
<path fill-rule="evenodd" clip-rule="evenodd" d="M12.2681 0.170898H85.2925V80.0136L27.5459 93.4614C24.017 94.2917 20.2294 93.8709 17.2879 92.0953C14.3043 90.2943 12.2681 87.1399 12.2681 82.7319V0.170898ZM30.5764 90.7021L76.0724 80.1072L29.6392 79.4711C31.3411 81.7735 31.8886 84.4775 31.6789 86.868C31.5554 88.2754 31.1682 89.6021 30.5764 90.7021ZM83.2925 78.2059L27.3305 77.4393C26.9096 77.4335 26.5301 77.692 26.3814 78.0858C26.2326 78.4797 26.3464 78.9245 26.6661 79.1984C29.1138 81.2965 29.907 84.1793 29.6865 86.6933C29.5761 87.9527 29.2127 89.0868 28.7048 89.9507C28.2019 90.8061 27.604 91.3236 27.0397 91.5258C23.9491 92.2411 20.7332 91.8389 18.3214 90.3831C15.9392 88.945 14.2681 86.441 14.2681 82.7319V2.1709H83.2925V78.2059Z" fill="#161616"/>
<path fill-rule="evenodd" clip-rule="evenodd" d="M52.2925 22.8538H24.9754V20.8538H52.2925V22.8538Z" fill="#161616"/>
<path fill-rule="evenodd" clip-rule="evenodd" d="M42.1461 38.4636H24.9754V36.4636H42.1461V38.4636Z" fill="#161616"/>
<path fill-rule="evenodd" clip-rule="evenodd" d="M73.3284 14.7179L65.6228 23.2797L59.0248 17.1215L60.3894 15.6594L65.4986 20.428L71.8418 13.38L73.3284 14.7179Z" fill="#161616"/>
<path fill-rule="evenodd" clip-rule="evenodd" d="M73.3284 30.3277L65.6228 38.8894L59.0248 32.7312L60.3894 31.2691L65.4986 36.0377L71.8418 28.9897L73.3284 30.3277Z" fill="#161616"/>
<path fill-rule="evenodd" clip-rule="evenodd" d="M73.3284 45.9374L65.6228 54.4992L59.0248 48.341L60.3894 46.8789L65.4986 51.6475L71.8418 44.5995L73.3284 45.9374Z" fill="#161616"/>
<path fill-rule="evenodd" clip-rule="evenodd" d="M49.951 54.0733H24.9754V52.0733H49.951V54.0733Z" fill="#161616"/>
</svg>
