<svg width="227" height="55" viewBox="0 0 227 55" fill="none" xmlns="http://www.w3.org/2000/svg">
<path d="M0.75 3.375C2.08333 3.58333 3.29167 3.77083 4.375 3.9375C5.45833 4.0625 6.39583 4.16667 7.1875 4.25C8.10417 4.375 8.91667 4.47917 9.625 4.5625C10.5 4.6875 11.8125 4.54167 13.5625 4.125C15.3125 3.66667 17.2292 3.25 19.3125 2.875C21.4375 2.45833 23.6042 2.22917 25.8125 2.1875C28.0208 2.10417 30.0417 2.5 31.875 3.375C33.7083 4.25 35.2083 5.125 36.375 6C37.5417 6.875 38.4583 7.8125 39.125 8.8125C39.8333 9.77083 40.3333 10.7917 40.625 11.875C40.9167 12.9583 41.0833 14.1458 41.125 15.4375C41.0833 17.3542 40.625 19.2083 39.75 21C39.375 21.75 38.875 22.5417 38.25 23.375C37.6667 24.1667 36.9375 24.9375 36.0625 25.6875C35.1875 26.4375 34.1458 27.1458 32.9375 27.8125C31.7708 28.4792 30.3958 29.0625 28.8125 29.5625C30.3542 30.0208 31.625 30.5625 32.625 31.1875C33.6667 31.8125 34.5 32.3958 35.125 32.9375C35.875 33.6042 36.4375 34.25 36.8125 34.875C37.2708 35.75 37.5833 36.5 37.75 37.125C37.9167 37.75 38.0208 38.3542 38.0625 38.9375C38.1458 39.4792 38.25 40.0417 38.375 40.625C38.5 41.2083 38.7708 41.875 39.1875 42.625C39.5208 43.2083 39.9167 43.8125 40.375 44.4375C40.7917 44.9792 41.2708 45.5625 41.8125 46.1875C42.3958 46.8125 43.1042 47.4167 43.9375 48C42.7708 48.0417 41.6875 48.0625 40.6875 48.0625C39.7292 48.0625 38.8958 48.0625 38.1875 48.0625C37.3542 48.0625 36.5625 48.0417 35.8125 48C35.0625 47.9583 34.125 47.9375 33 47.9375C32.0417 47.9375 30.8125 47.9375 29.3125 47.9375C27.8542 47.9375 26.0833 47.9583 24 48C24.9167 47.2917 25.6667 46.5833 26.25 45.875C26.8333 45.1667 27.2917 44.5208 27.625 43.9375C28 43.2708 28.2708 42.625 28.4375 42C28.6458 40.875 28.6667 39.7083 28.5 38.5C28.375 37.4583 28.0417 36.3125 27.5 35.0625C26.9583 33.7708 26.0833 32.4792 24.875 31.1875C23.6667 31.3958 22.6458 31.5625 21.8125 31.6875C21.0208 31.7708 20.3333 31.8542 19.75 31.9375C19.0833 32.0208 18.5417 32.0833 18.125 32.125C17.75 32.1667 17.3333 32.2083 16.875 32.25C16.5 32.2917 16.0833 32.3542 15.625 32.4375C15.2083 32.4792 14.8125 32.5417 14.4375 32.625C14.3542 34.4167 14.3542 35.9792 14.4375 37.3125C14.5208 38.6042 14.625 39.6875 14.75 40.5625C14.9167 41.6042 15.1042 42.5 15.3125 43.25C15.5208 44 15.8125 44.7292 16.1875 45.4375C16.4792 46.0208 16.8542 46.6458 17.3125 47.3125C17.7708 47.9375 18.2917 48.4583 18.875 48.875C17.7917 48.875 16.75 48.875 15.75 48.875C14.7917 48.875 13.9167 48.8542 13.125 48.8125C12.2083 48.8125 11.3333 48.7917 10.5 48.75C9.66667 48.7083 8.72917 48.6875 7.6875 48.6875C6.8125 48.6875 5.77083 48.6875 4.5625 48.6875C3.39583 48.6875 2.125 48.7083 0.75 48.75C1.83333 47.625 2.6875 46.6667 3.3125 45.875C3.9375 45.0833 4.41667 44.4167 4.75 43.875C5.125 43.2917 5.35417 42.7917 5.4375 42.375C5.52083 41.7083 5.58333 40.5208 5.625 38.8125C5.70833 37.0625 5.77083 35.0625 5.8125 32.8125C5.85417 30.5625 5.875 28.2083 5.875 25.75C5.875 23.2917 5.85417 21 5.8125 18.875C5.77083 16.7083 5.72917 14.8542 5.6875 13.3125C5.64583 11.7708 5.60417 10.7917 5.5625 10.375C5.4375 9.625 5.16667 8.875 4.75 8.125C4.41667 7.45833 3.9375 6.70833 3.3125 5.875C2.6875 5.04167 1.83333 4.20833 0.75 3.375ZM24.375 25.375C24.7917 25.125 25.1458 24.875 25.4375 24.625C25.7292 24.375 25.9792 23.9792 26.1875 23.4375C26.3958 22.8542 26.5625 22.0417 26.6875 21C26.8542 19.9583 27.0417 18.5417 27.25 16.75C27.4167 14.9583 27.2917 13.4792 26.875 12.3125C26.5 11.1458 25.9792 10.2292 25.3125 9.5625C24.6875 8.85417 23.9792 8.375 23.1875 8.125C22.4375 7.83333 21.7708 7.6875 21.1875 7.6875C20.0208 7.6875 18.875 8.04167 17.75 8.75C16.625 9.45833 15.7708 10.4167 15.1875 11.625C14.9792 12.1667 14.7917 13.0625 14.625 14.3125C14.5 15.3958 14.4167 16.8958 14.375 18.8125C14.3333 20.7292 14.3958 23.25 14.5625 26.375C16.1458 26.625 17.5417 26.7292 18.75 26.6875C19.9583 26.6042 20.9792 26.4583 21.8125 26.25C22.8125 26.0417 23.6667 25.75 24.375 25.375ZM43.9375 20.25C45.0208 20.4583 45.9583 20.625 46.75 20.75C47.5833 20.8333 48.2917 20.9167 48.875 21C49.5417 21.0833 50.125 21.1458 50.625 21.1875C51.125 21.2292 51.7083 21.2708 52.375 21.3125C53.5 21.3542 55.0833 21.3542 57.125 21.3125C55.9167 21.2292 54.9583 21.5417 54.25 22.25C53.5833 22.9167 53.0833 23.6875 52.75 24.5625C52.3333 25.6042 52.1042 26.8125 52.0625 28.1875C51.9792 30.0208 52.0208 31.6875 52.1875 33.1875C52.3958 34.6458 52.75 35.8958 53.25 36.9375C53.7917 37.9375 54.5 38.6875 55.375 39.1875C56.25 39.6458 57.375 39.7708 58.75 39.5625C60.125 39.3542 61.1667 38.875 61.875 38.125C62.625 37.3333 63.1667 36.375 63.5 35.25C63.8333 34.0833 64.0208 32.7708 64.0625 31.3125C64.1458 29.8542 64.2083 28.3333 64.25 26.75C64.25 25.1667 64.2292 24.0417 64.1875 23.375C64.1875 22.6667 64.1667 22.2083 64.125 22C64.0833 21.7917 64.0208 21.7083 63.9375 21.75C63.8542 21.75 63.75 21.6458 63.625 21.4375C63.5417 21.2708 63.4167 21.1042 63.25 20.9375C63.125 20.7708 62.9583 20.5833 62.75 20.375C62.5417 20.125 62.3125 19.875 62.0625 19.625C63.1458 19.6667 64.1042 19.7083 64.9375 19.75C65.8125 19.75 66.5417 19.7708 67.125 19.8125C67.7917 19.8542 68.375 19.8958 68.875 19.9375C69.3333 19.9792 69.9375 20.0417 70.6875 20.125C71.3125 20.2083 72.125 20.2917 73.125 20.375C74.125 20.4583 75.3125 20.5833 76.6875 20.75C75.7292 20.9583 74.9583 21.2708 74.375 21.6875C73.7917 22.1042 73.3333 22.5208 73 22.9375C72.625 23.3958 72.3542 23.8958 72.1875 24.4375C72.0625 25.1458 72.0625 26.2292 72.1875 27.6875C72.2708 28.9792 72.4792 30.75 72.8125 33C73.1458 35.25 73.6667 38.2083 74.375 41.875L69.4375 44.8125L68.4375 36.5C67.2292 38.5417 65.9375 40.125 64.5625 41.25C63.2292 42.3333 61.9792 43.125 60.8125 43.625C59.4375 44.2083 58.1042 44.5417 56.8125 44.625C55.1042 44.625 53.625 44.5208 52.375 44.3125C51.1667 44.0625 50.125 43.75 49.25 43.375C48.375 43 47.6667 42.5833 47.125 42.125C46.625 41.625 46.25 41.125 46 40.625C45.4167 39.5833 45.1042 38.25 45.0625 36.625C45.0208 34.9583 45.0833 33.3125 45.25 31.6875C45.4167 30.0208 45.6042 28.5 45.8125 27.125C46.0208 25.75 46.0833 24.8125 46 24.3125C45.9167 23.9375 45.7917 23.5208 45.625 23.0625C45.4583 22.6875 45.25 22.2708 45 21.8125C44.75 21.3125 44.3958 20.7917 43.9375 20.25ZM77.625 5.125C78.5833 5.375 79.4583 5.5625 80.25 5.6875C81.0833 5.77083 81.7917 5.83333 82.375 5.875C83.0833 5.91667 83.7292 5.9375 84.3125 5.9375C84.8958 5.9375 85.625 5.89583 86.5 5.8125C88.0417 5.6875 90.2292 5.375 93.0625 4.875C92.6042 5.20833 92.1667 5.54167 91.75 5.875C91.375 6.16667 91.0417 6.45833 90.75 6.75L89.8125 7.6875C89.2708 8.4375 88.7292 9.70833 88.1875 11.5C87.7292 13.0417 87.2292 15.2083 86.6875 18C86.1875 20.7917 85.7292 24.5 85.3125 29.125C87.3542 27.125 89.2708 25.625 91.0625 24.625C92.8958 23.5833 94.5 22.8333 95.875 22.375C97.5 21.875 98.9792 21.6042 100.312 21.5625C102.021 21.6875 103.5 22.0417 104.75 22.625C106.042 23.1667 107.125 23.8333 108 24.625C108.917 25.375 109.646 26.1667 110.188 27C110.771 27.7917 111.208 28.5 111.5 29.125C111.667 29.5417 111.792 30.3125 111.875 31.4375C112 32.5208 112.021 33.7708 111.938 35.1875C111.854 36.6042 111.625 38.1042 111.25 39.6875C110.917 41.2292 110.354 42.6667 109.562 44C108.812 45.2917 107.812 46.375 106.562 47.25C105.354 48.125 103.833 48.6042 102 48.6875C99.875 48.6875 97.8125 48.4375 95.8125 47.9375C94.1042 47.5208 92.2917 46.7917 90.375 45.75C88.5 44.6667 86.8958 43.125 85.5625 41.125C85.5625 41.625 85.5625 42.125 85.5625 42.625C85.5625 43.0833 85.5833 43.4792 85.625 43.8125C85.6667 44.2708 85.7083 44.6667 85.75 45C85.7917 45.375 85.8958 45.7708 86.0625 46.1875C86.1875 46.5208 86.375 46.9375 86.625 47.4375C86.9167 47.8958 87.2917 48.3542 87.75 48.8125C87.2917 48.7708 86.8333 48.75 86.375 48.75C85.9167 48.7083 85.4583 48.7083 85 48.75C84.5 48.7917 84 48.8333 83.5 48.875C83 48.9167 82.4792 48.9792 81.9375 49.0625C81.4792 49.1458 80.9375 49.25 80.3125 49.375C79.6875 49.5 79.0417 49.6458 78.375 49.8125C78.5 49.4375 78.6042 48.8958 78.6875 48.1875C78.7708 47.4375 78.8542 46.625 78.9375 45.75C79.0625 44.8333 79.1458 43.875 79.1875 42.875C79.2708 41.875 79.3542 40.875 79.4375 39.875C79.6042 37.5833 79.75 35.0833 79.875 32.375C80 28.1667 80.0208 24.25 79.9375 20.625C79.8958 19.0833 79.8125 17.5208 79.6875 15.9375C79.6042 14.3542 79.4792 12.875 79.3125 11.5C79.1458 10.0833 78.9167 8.83333 78.625 7.75C78.375 6.625 78.0417 5.75 77.625 5.125ZM85.75 35.5625C86.4167 36.7708 87.125 37.8125 87.875 38.6875C88.625 39.5208 89.375 40.2292 90.125 40.8125C90.875 41.3958 91.6042 41.8542 92.3125 42.1875C93.0625 42.5208 93.7708 42.7708 94.4375 42.9375C95.9792 43.3542 97.5 43.3958 99 43.0625C100.5 42.6458 101.667 41.8125 102.5 40.5625C103.333 39.3125 103.979 37.8958 104.438 36.3125C104.646 35.5625 104.771 34.6042 104.812 33.4375C104.896 32.2708 104.771 31.1458 104.438 30.0625C104.146 28.9375 103.604 27.9583 102.812 27.125C102.021 26.25 100.875 25.7292 99.375 25.5625C98.3333 25.5625 97.125 25.8542 95.75 26.4375C94.5417 26.9375 93.1042 27.7708 91.4375 28.9375C89.7708 30.0625 87.875 31.75 85.75 34V35.5625ZM114.25 3.9375C114.708 4.14583 115.25 4.29167 115.875 4.375C116.542 4.45833 117.167 4.5 117.75 4.5C118.458 4.5 119.188 4.47917 119.938 4.4375C120.688 4.39583 121.604 4.3125 122.688 4.1875C123.562 4.10417 124.646 4 125.938 3.875C127.229 3.75 128.667 3.58333 130.25 3.375C129.667 3.66667 129.167 3.97917 128.75 4.3125C128.333 4.64583 127.979 4.97917 127.688 5.3125C127.354 5.6875 127.083 6.0625 126.875 6.4375C126.583 6.9375 126.188 7.8125 125.688 9.0625C125.229 10.2708 124.75 11.625 124.25 13.125C123.792 14.625 123.375 16.1458 123 17.6875C122.667 19.2292 122.479 20.5417 122.438 21.625C122.396 22.5417 122.354 23.5833 122.312 24.75C122.271 25.75 122.229 26.9792 122.188 28.4375C122.146 29.8958 122.104 31.5625 122.062 33.4375C125.062 31.2708 127.375 29.5417 129 28.25C130.625 26.9167 131.812 25.8958 132.562 25.1875C133.438 24.3958 133.958 23.8333 134.125 23.5C134.083 23.25 133.979 22.9792 133.812 22.6875C133.604 22.4375 133.312 22.1458 132.938 21.8125C132.562 21.4792 132 21.1042 131.25 20.6875C132.333 20.8125 133.271 20.8958 134.062 20.9375C134.896 20.9792 135.604 21.0208 136.188 21.0625C136.854 21.1042 137.438 21.1042 137.938 21.0625C138.479 21.0625 139.146 21.0417 139.938 21C141.312 20.9583 143.438 20.8958 146.312 20.8125C143.521 22.2708 141.312 23.5208 139.688 24.5625C138.771 25.1458 137.958 25.6875 137.25 26.1875C136.542 26.7292 135.812 27.2917 135.062 27.875C134.396 28.375 133.625 28.9583 132.75 29.625C131.917 30.2917 131.083 31 130.25 31.75C131.708 34.125 132.979 36.0833 134.062 37.625C135.188 39.1667 136.125 40.4167 136.875 41.375C137.75 42.5 138.521 43.3958 139.188 44.0625C139.854 44.6875 140.729 45.3958 141.812 46.1875C142.729 46.8958 143.917 47.7292 145.375 48.6875C146.875 49.6042 148.688 50.6667 150.812 51.875C149.729 51.6667 148.688 51.5208 147.688 51.4375C146.688 51.3958 145.833 51.3958 145.125 51.4375C144.25 51.4792 143.458 51.5625 142.75 51.6875C142 51.8542 141.167 52.0625 140.25 52.3125C139.458 52.5208 138.521 52.7917 137.438 53.125C136.396 53.5 135.25 53.9792 134 54.5625C134.792 53.9792 135.375 53.4167 135.75 52.875C136.167 52.375 136.458 51.9583 136.625 51.625C136.792 51.2083 136.854 50.8542 136.812 50.5625C136.604 50.1458 136.125 49.2917 135.375 48C134.667 46.9167 133.625 45.3333 132.25 43.25C130.875 41.1667 128.917 38.3333 126.375 34.75C126.25 34.7917 126.042 34.9167 125.75 35.125C125.5 35.3333 125.125 35.625 124.625 36C124.125 36.3333 123.458 36.8333 122.625 37.5L124.312 48.4375C123.938 48.6042 123.521 48.75 123.062 48.875C122.646 49 122.25 49.1042 121.875 49.1875C121.417 49.3125 120.958 49.3958 120.5 49.4375C120.042 49.4792 119.5 49.5625 118.875 49.6875C118.333 49.7708 117.688 49.875 116.938 50C116.188 50.1667 115.333 50.3542 114.375 50.5625C114.917 50.1875 115.354 49.75 115.688 49.25C116.021 48.7917 116.292 48.3542 116.5 47.9375C116.708 47.4792 116.896 47 117.062 46.5C117.146 46.0833 117.229 45 117.312 43.25C117.438 41.5 117.542 39.4167 117.625 37C117.708 34.5417 117.771 31.9167 117.812 29.125C117.896 26.3333 117.938 23.7083 117.938 21.25C117.938 18.75 117.917 16.5833 117.875 14.75C117.833 12.875 117.75 11.6667 117.625 11.125C117.417 10.4583 117.167 9.75 116.875 9C116.625 8.33333 116.271 7.58333 115.812 6.75C115.396 5.875 114.875 4.9375 114.25 3.9375ZM160.812 21C161.896 21 163.021 21.2083 164.188 21.625C165.354 22 166.479 22.5 167.562 23.125C168.646 23.7083 169.625 24.3542 170.5 25.0625C171.417 25.7292 172.167 26.375 172.75 27C173.792 28.125 174.5 29.6458 174.875 31.5625C175.292 33.4375 175.375 35.375 175.125 37.375C174.875 39.3333 174.292 41.1875 173.375 42.9375C172.458 44.6875 171.188 45.9792 169.562 46.8125C168.396 47.3958 167.25 47.8542 166.125 48.1875C165 48.5208 163.917 48.7708 162.875 48.9375C161.833 49.1042 160.854 49.1875 159.938 49.1875C159.021 49.1875 158.229 49.1667 157.562 49.125C156.312 49.0417 155 48.6042 153.625 47.8125C152.292 47.0208 151.021 46.0417 149.812 44.875C148.646 43.7083 147.646 42.4375 146.812 41.0625C145.979 39.6458 145.479 38.3125 145.312 37.0625C145.062 35.3542 145.021 33.5625 145.188 31.6875C145.354 29.8125 145.958 28.0833 147 26.5C148.083 24.9167 149.708 23.6042 151.875 22.5625C154.083 21.5208 157.062 21 160.812 21ZM158.75 45.25C159.208 45.3333 159.833 45.2292 160.625 44.9375C161.417 44.6042 162.188 44.0833 162.938 43.375C163.729 42.6667 164.417 41.7708 165 40.6875C165.625 39.5625 166 38.2083 166.125 36.625C166.25 35.0833 166.25 33.6667 166.125 32.375C166.042 31.0833 165.854 29.9583 165.562 29C165.271 28 164.938 27.1875 164.562 26.5625C164.188 25.9375 163.792 25.5 163.375 25.25C162.667 24.875 161.812 24.5833 160.812 24.375C159.812 24.125 158.958 24.1667 158.25 24.5C157.917 24.6667 157.5 25.0208 157 25.5625C156.5 26.1042 156 26.7917 155.5 27.625C155 28.4167 154.542 29.3333 154.125 30.375C153.75 31.4167 153.479 32.5 153.312 33.625C153.146 34.75 153.104 35.9583 153.188 37.25C153.312 38.5417 153.583 39.7708 154 40.9375C154.417 42.0625 155 43.0417 155.75 43.875C156.542 44.6667 157.542 45.125 158.75 45.25ZM180.875 51.25C181.708 50.6667 182.375 49.8958 182.875 48.9375C183.375 47.9792 183.75 47.0417 184 46.125C184.292 45.0417 184.479 43.9167 184.562 42.75C184.562 42.0417 184.521 40.9167 184.438 39.375C184.354 38.0833 184.229 36.3125 184.062 34.0625C183.896 31.7708 183.646 28.8125 183.312 25.1875C182.854 25.2292 182.458 25.2708 182.125 25.3125C181.792 25.3125 181.521 25.3125 181.312 25.3125H180.625C180.417 25.3125 180.167 25.3333 179.875 25.375C179.625 25.4167 179.292 25.4792 178.875 25.5625C178.5 25.6458 178.042 25.75 177.5 25.875C177.583 25.5417 177.625 25.2083 177.625 24.875C177.667 24.5 177.708 24.1667 177.75 23.875C177.792 23.5417 177.812 23.2292 177.812 22.9375V22C177.812 21.7083 177.812 21.3958 177.812 21.0625C177.854 20.7292 177.896 20.3958 177.938 20.0625L182.875 20.1875C182.667 18.3958 182.583 16.7917 182.625 15.375C182.667 13.9167 182.729 12.6667 182.812 11.625C182.938 10.4167 183.104 9.35417 183.312 8.4375C183.604 7.3125 184 6.27083 184.5 5.3125C185 4.35417 185.688 3.54167 186.562 2.875C187.438 2.20833 188.521 1.70833 189.812 1.375C191.104 1 192.667 0.8125 194.5 0.8125C196.583 0.854167 198.229 1.125 199.438 1.625C200.646 2.08333 201.542 2.6875 202.125 3.4375C202.708 4.14583 203.042 4.95833 203.125 5.875C203.208 6.79167 203.188 7.6875 203.062 8.5625C202.979 9.39583 202.833 10.1667 202.625 10.875C202.458 11.5833 202.396 12.1042 202.438 12.4375C202.479 12.6875 202.583 13.0208 202.75 13.4375C202.875 13.7708 203.062 14.1875 203.312 14.6875C203.604 15.1875 204.021 15.75 204.562 16.375C203.896 16.2917 203.229 16.2292 202.562 16.1875C201.896 16.1042 201.271 16.0417 200.688 16C200.021 15.9583 199.375 15.9375 198.75 15.9375C198.125 15.9792 197.479 16.0208 196.812 16.0625C196.229 16.1458 195.604 16.2292 194.938 16.3125C194.271 16.3542 193.646 16.4792 193.062 16.6875C193.896 16.1042 194.542 15.5 195 14.875C195.458 14.25 195.812 13.6875 196.062 13.1875C196.354 12.6042 196.542 12.0208 196.625 11.4375C196.667 10.7292 196.625 9.9375 196.5 9.0625C196.417 8.14583 196.229 7.3125 195.938 6.5625C195.646 5.8125 195.292 5.20833 194.875 4.75C194.458 4.25 193.958 4.0625 193.375 4.1875C192.5 4.52083 191.688 5.33333 190.938 6.625C190.312 7.70833 189.708 9.35417 189.125 11.5625C188.542 13.7292 188.167 16.75 188 20.625C188.792 20.7083 189.521 20.7708 190.188 20.8125C190.896 20.8125 191.521 20.8333 192.062 20.875C192.688 20.9167 193.271 20.9375 193.812 20.9375C194.354 20.9375 194.958 20.9167 195.625 20.875C196.208 20.8333 196.896 20.8125 197.688 20.8125C198.479 20.7708 199.354 20.7083 200.312 20.625L200.188 23.875C199.438 23.9583 198.708 24.0208 198 24.0625C197.292 24.1042 196.667 24.1458 196.125 24.1875C195.5 24.2292 194.917 24.2708 194.375 24.3125C193.792 24.3542 193.188 24.3958 192.562 24.4375C192.021 24.4792 191.396 24.5417 190.688 24.625C190.021 24.7083 189.312 24.7917 188.562 24.875C189.146 29.5833 189.646 33.3958 190.062 36.3125C190.521 39.1875 190.917 41.4167 191.25 43C191.583 44.875 191.875 46.2083 192.125 47C192.375 47.6667 192.667 48.25 193 48.75C193.292 49.2083 193.646 49.6458 194.062 50.0625C194.479 50.4792 194.958 50.75 195.5 50.875C194.167 50.6667 193.021 50.5 192.062 50.375C191.104 50.2917 190.292 50.2292 189.625 50.1875C188.875 50.1458 188.229 50.125 187.688 50.125C187.188 50.1667 186.583 50.2292 185.875 50.3125C184.667 50.4375 183 50.75 180.875 51.25ZM202.812 51.25C203.646 50.6667 204.312 49.8958 204.812 48.9375C205.312 47.9792 205.688 47.0417 205.938 46.125C206.229 45.0417 206.417 43.9167 206.5 42.75C206.5 42.0417 206.458 40.9167 206.375 39.375C206.292 38.0833 206.167 36.3125 206 34.0625C205.833 31.7708 205.583 28.8125 205.25 25.1875C204.792 25.2292 204.396 25.2708 204.062 25.3125C203.729 25.3125 203.458 25.3125 203.25 25.3125H202.562C202.354 25.3125 202.104 25.3333 201.812 25.375C201.562 25.4167 201.229 25.4792 200.812 25.5625C200.438 25.6458 199.979 25.75 199.438 25.875C199.521 25.5417 199.562 25.2083 199.562 24.875C199.604 24.5 199.646 24.1667 199.688 23.875C199.729 23.5417 199.75 23.2292 199.75 22.9375V22C199.75 21.7083 199.75 21.3958 199.75 21.0625C199.792 20.7292 199.833 20.3958 199.875 20.0625L204.812 20.1875C204.604 18.3958 204.521 16.7917 204.562 15.375C204.604 13.9167 204.667 12.6667 204.75 11.625C204.875 10.4167 205.042 9.35417 205.25 8.4375C205.542 7.3125 205.938 6.27083 206.438 5.3125C206.938 4.35417 207.625 3.54167 208.5 2.875C209.375 2.20833 210.458 1.70833 211.75 1.375C213.042 1 214.604 0.8125 216.438 0.8125C218.521 0.854167 220.167 1.125 221.375 1.625C222.583 2.08333 223.479 2.6875 224.062 3.4375C224.646 4.14583 224.979 4.95833 225.062 5.875C225.146 6.79167 225.125 7.6875 225 8.5625C224.917 9.39583 224.771 10.1667 224.562 10.875C224.396 11.5833 224.333 12.1042 224.375 12.4375C224.417 12.6875 224.521 13.0208 224.688 13.4375C224.812 13.7708 225 14.1875 225.25 14.6875C225.542 15.1875 225.958 15.75 226.5 16.375C225.833 16.2917 225.167 16.2292 224.5 16.1875C223.833 16.1042 223.208 16.0417 222.625 16C221.958 15.9583 221.312 15.9375 220.688 15.9375C220.062 15.9792 219.417 16.0208 218.75 16.0625C218.167 16.1458 217.542 16.2292 216.875 16.3125C216.208 16.3542 215.583 16.4792 215 16.6875C215.833 16.1042 216.479 15.5 216.938 14.875C217.396 14.25 217.75 13.6875 218 13.1875C218.292 12.6042 218.479 12.0208 218.562 11.4375C218.604 10.7292 218.562 9.9375 218.438 9.0625C218.354 8.14583 218.167 7.3125 217.875 6.5625C217.583 5.8125 217.229 5.20833 216.812 4.75C216.396 4.25 215.896 4.0625 215.312 4.1875C214.438 4.52083 213.625 5.33333 212.875 6.625C212.25 7.70833 211.646 9.35417 211.062 11.5625C210.479 13.7292 210.104 16.75 209.938 20.625C210.729 20.7083 211.458 20.7708 212.125 20.8125C212.833 20.8125 213.458 20.8333 214 20.875C214.625 20.9167 215.208 20.9375 215.75 20.9375C216.292 20.9375 216.896 20.9167 217.562 20.875C218.146 20.8333 218.833 20.8125 219.625 20.8125C220.417 20.7708 221.292 20.7083 222.25 20.625L222.125 23.875C221.375 23.9583 220.646 24.0208 219.938 24.0625C219.229 24.1042 218.604 24.1458 218.062 24.1875C217.438 24.2292 216.854 24.2708 216.312 24.3125C215.729 24.3542 215.125 24.3958 214.5 24.4375C213.958 24.4792 213.333 24.5417 212.625 24.625C211.958 24.7083 211.25 24.7917 210.5 24.875C211.083 29.5833 211.583 33.3958 212 36.3125C212.458 39.1875 212.854 41.4167 213.188 43C213.521 44.875 213.812 46.2083 214.062 47C214.312 47.6667 214.604 48.25 214.938 48.75C215.229 49.2083 215.583 49.6458 216 50.0625C216.417 50.4792 216.896 50.75 217.438 50.875C216.104 50.6667 214.958 50.5 214 50.375C213.042 50.2917 212.229 50.2292 211.562 50.1875C210.812 50.1458 210.167 50.125 209.625 50.125C209.125 50.1667 208.521 50.2292 207.812 50.3125C206.604 50.4375 204.938 50.75 202.812 51.25Z" fill="#224646"/>
</svg>
